<svg id="Layer_1" data-name="Layer 1" xmlns="http://www.w3.org/2000/svg" viewBox="0 0 500 187.22"><defs><style>.cls-1{fill:#00417f;}.cls-2{fill:#46b7c2;}.cls-3{fill:#0b9acf;}.cls-4{fill:#0080bc;}</style></defs><path class="cls-1" d="M66.45,63V124.8H60.36a8.74,8.74,0,0,1-8.74-8.74h0a21.87,21.87,0,0,1-9.11,7.72,30.18,30.18,0,0,1-13.25,2.85,29,29,0,0,1-15.27-4A27,27,0,0,1,3.66,111.21,37.87,37.87,0,0,1,0,94.11,37.73,37.73,0,0,1,3.86,76.73,28.08,28.08,0,0,1,14.67,65.08a30.77,30.77,0,0,1,16-4.1,30.24,30.24,0,0,1,12.7,2.58,21.9,21.9,0,0,1,9,7.25h0A9.27,9.27,0,0,1,61.47,63ZM45.83,107.32q4.91-5.28,4.91-13.75T46,80q-4.77-5.11-12.7-5.12t-12.7,5.18q-4.77,5.19-4.78,13.65t4.81,13.69a16.26,16.26,0,0,0,12.54,5.21A16.57,16.57,0,0,0,45.83,107.32Z"/><path class="cls-1" d="M117.06,63V76.23q-2.5-.27-3.66-.27-8.33,0-12.83,4.64T96.06,93.7v23.14a8,8,0,0,1-8,8H80.55V63h5a10.44,10.44,0,0,1,10.33,8.87h0a11.78,11.78,0,0,1,5.49-7,19,19,0,0,1,9.82-2.44A33.93,33.93,0,0,1,117.06,63Z"/><path class="cls-1" d="M177.15,65.08A28.66,28.66,0,0,1,187.89,76.6a36.32,36.32,0,0,1,3.89,17.1,37,37,0,0,1-3.89,17.21,28.49,28.49,0,0,1-10.74,11.62,30.13,30.13,0,0,1-15.78,4.1,31.33,31.33,0,0,1-12.06-2.24A20.39,20.39,0,0,1,140.7,118v42.71a8.72,8.72,0,0,1-6.35,8.4l-9,2.54V63h3.78a10.19,10.19,0,0,1,10.1,8.87h0a23,23,0,0,1,9.22-7.92A29.28,29.28,0,0,1,161.57,61,29.76,29.76,0,0,1,177.15,65.08Zm-6,42.31q4.78-5.22,4.78-13.55t-4.78-13.65A16.25,16.25,0,0,0,158.59,75,16.48,16.48,0,0,0,146,80.19q-4.84,5.18-4.84,13.78t4.81,13.55a16.46,16.46,0,0,0,12.53,5.08Q166.39,112.6,171.15,107.39Z"/><path class="cls-1" d="M265.42,63.08v61.59a.13.13,0,0,1-.13.13h-6.37a8.33,8.33,0,0,1-8.34-8.34h0a.12.12,0,0,0-.22-.06,22,22,0,0,1-8.89,7.38,30.14,30.14,0,0,1-13.24,2.85,29,29,0,0,1-15.28-4,27,27,0,0,1-10.33-11.39A37.87,37.87,0,0,1,199,94.11a37.61,37.61,0,0,1,3.87-17.38,28,28,0,0,1,10.8-11.65,30.82,30.82,0,0,1,16-4.1,30.32,30.32,0,0,1,12.71,2.58,21.81,21.81,0,0,1,8.79,7,.13.13,0,0,0,.23,0h0A8.92,8.92,0,0,1,260.13,63h5.16A.13.13,0,0,1,265.42,63.08Zm-20.63,44.24q4.92-5.28,4.91-13.75T244.93,80q-4.78-5.11-12.7-5.12t-12.71,5.18q-4.77,5.19-4.77,13.65t4.81,13.69a16.23,16.23,0,0,0,12.53,5.21A16.55,16.55,0,0,0,244.79,107.32Z"/><path class="cls-1" d="M330.42,67.79q6.27,6.81,6.26,18.73v38.23s0,0,0,0h-7.36a8.18,8.18,0,0,1-8.18-8.18V90.11q0-15.1-12.32-15.1-6.64,0-10.27,3.86T294.89,89.3v27.28a8.22,8.22,0,0,1-8.22,8.22h-7.12a0,0,0,0,1,0,0V63a0,0,0,0,1,0,0H285a8.68,8.68,0,0,1,8.57,7.35h0a0,0,0,0,0,.07,0,20.51,20.51,0,0,1,8.21-6.76A26.3,26.3,0,0,1,313.38,61Q324.15,61,330.42,67.79Z"/><path class="cls-1" d="M405.31,63v57.77a4.08,4.08,0,0,1-4.07,4.08h-5.6a3.71,3.71,0,0,1-3.67-3.17l-.68-4.62a21.74,21.74,0,0,1-8.3,7.18,25.24,25.24,0,0,1-11.21,2.44q-11,0-16.94-6.61t-6-17.71V72.85a9.9,9.9,0,0,1,9.9-9.9h5.61V99.66q0,7.05,3.26,10.2t9.21,3.15a12.05,12.05,0,0,0,9.45-3.9q3.48-3.89,3.49-10.53V71.86A8.91,8.91,0,0,1,398.71,63Z"/><path class="cls-1" d="M219.58,148v21.72H216.7v-7q0-4.14.23-8.41l-6.37,14.82h-2.75l-6.28-14.69q.3,3.76.32,8.28v7H199V148h2.79l7.48,17.8L216.8,148Z"/><path class="cls-1" d="M240.5,150.72v6.79H250v2.57H240.5V167H251v2.72H237.59V148H251v2.75Z"/><path class="cls-1" d="M281.21,149.36a10,10,0,0,1,3.88,3.87,12.3,12.3,0,0,1,0,11.3,9.66,9.66,0,0,1-3.87,3.81,11.63,11.63,0,0,1-5.71,1.38h-7.26V148h7.26A11.4,11.4,0,0,1,281.21,149.36ZM279.55,166a7.12,7.12,0,0,0,2.82-2.86,8.69,8.69,0,0,0,1-4.22,8.92,8.92,0,0,0-1-4.3,7,7,0,0,0-2.82-2.89,8.44,8.44,0,0,0-4.21-1h-4.11V167h4.11A8.44,8.44,0,0,0,279.55,166Z"/><path class="cls-1" d="M303.28,169.72V148h3v21.75Z"/><path class="cls-1" d="M328.15,168.71a10,10,0,0,1-3.88-4,13.22,13.22,0,0,1,0-11.76,9.87,9.87,0,0,1,3.88-4,11.41,11.41,0,0,1,5.73-1.42,12.25,12.25,0,0,1,4.7.88,9.36,9.36,0,0,1,3.59,2.51,8.44,8.44,0,0,1,1.93,3.8h-3.27a5.87,5.87,0,0,0-2.52-3.22,8.17,8.17,0,0,0-4.5-1.24,7.7,7.7,0,0,0-4.08,1.08,7.37,7.37,0,0,0-2.77,3,10.89,10.89,0,0,0,0,9,7,7,0,0,0,2.77,3,8,8,0,0,0,4.08,1,8.12,8.12,0,0,0,4.46-1.21,5.83,5.83,0,0,0,2.56-3.24h3.27a8.17,8.17,0,0,1-1.88,3.76,9.48,9.48,0,0,1-3.59,2.54,12.29,12.29,0,0,1-4.75.9A11.38,11.38,0,0,1,328.15,168.71Z"/><path class="cls-1" d="M366,148h3.27l8.1,21.75h-3.12l-2-5.44h-9.32l-2,5.44h-3Zm5.44,13.88-2-5.4c-.63-1.79-1.06-3-1.3-3.59l-.51-1.46s-.56,1.7-1.82,5.12l-2,5.33Z"/><path class="cls-1" d="M405.18,167v2.69h-12V148h2.95V167Z"/><path class="cls-2" d="M500,25.4c-.5.55-.83.94-1.19,1.3-9,9-17.92,18-26.92,26.91-8.57,8.51-23.44,6.53-29.38-3.87-.08-.13-.12-.28-.16-1a4.34,4.34,0,0,0,.82.38,9.17,9.17,0,0,0,9-2.62q9.21-9.18,18.39-18.39c5.54-5.59,12.05-7.54,19.7-5.43,2.59.72,5.21,1.36,7.81,2.05C498.66,24.94,499.24,25.15,500,25.4Z"/><path class="cls-3" d="M430.73,94.79c-.64-2.31-1.2-4.27-1.73-6.25-2.86-10.71-5.75-21.43-8.57-32.16a18.94,18.94,0,0,1,16.91-23.63,11.77,11.77,0,0,0,1.53-.29L439,33c-.25.3-.49.61-.74.92a9.39,9.39,0,0,0-1.91,8.63q3.41,12.79,6.83,25.57c2,7.42.33,13.9-5.11,19.37Z"/><path class="cls-4" d="M405.31,0,420,3.91c7.75,2.08,15.49,4.21,23.27,6.22,12.28,3.18,18.24,17.42,11.54,28.1a5.86,5.86,0,0,1-.47-.94,8.92,8.92,0,0,0-6.54-6.3c-6.42-1.75-12.86-3.46-19.28-5.18-2.66-.72-5.35-1.32-7.95-2.18a18,18,0,0,1-12-11.9C407.33,8,406.44,4.12,405.31,0Z"/></svg>