<svg id="Layer_1" data-name="Layer 1" xmlns="http://www.w3.org/2000/svg" xmlns:xlink="http://www.w3.org/1999/xlink" viewBox="0 0 500 234.6"><defs><style>.cls-1{fill:#3644b9;}.cls-2{fill-rule:evenodd;fill:url(#linear-gradient);}.cls-3{fill:url(#linear-gradient-2);}.cls-4{fill:url(#linear-gradient-3);}.cls-5{fill:url(#linear-gradient-4);}.cls-6{fill:url(#linear-gradient-5);}</style><linearGradient id="linear-gradient" x1="421.68" y1="39.27" x2="496.87" y2="39.27" gradientUnits="userSpaceOnUse"><stop offset="0" stop-color="#fc713a"/><stop offset="1" stop-color="#f93841"/></linearGradient><linearGradient id="linear-gradient-2" x1="55.31" y1="38.09" x2="55.31" y2="150.31" xlink:href="#linear-gradient"/><linearGradient id="linear-gradient-3" x1="171.31" y1="35.52" x2="171.31" y2="152.88" xlink:href="#linear-gradient"/><linearGradient id="linear-gradient-4" x1="288.5" y1="35.87" x2="288.5" y2="153.23" xlink:href="#linear-gradient"/><linearGradient id="linear-gradient-5" x1="358.94" y1="94.25" x2="500" y2="94.25" xlink:href="#linear-gradient"/></defs><path class="cls-1" d="M31.25,183.42a16.14,16.14,0,0,1,7.24,6,18.38,18.38,0,0,1,0,18.58,16,16,0,0,1-7.24,6,27.12,27.12,0,0,1-11.09,2.1H9.1v14.14H0v-49H20.16A27.12,27.12,0,0,1,31.25,183.42ZM28.76,206a10,10,0,0,0,0-14.41q-3.07-2.52-9-2.52H9.1v19.45H19.74Q25.68,208.47,28.76,206Z"/><path class="cls-1" d="M116.25,222.68v7.63H79.51v-49h35.76V189H88.61v12.74h23.65v7.48H88.61v13.51Z"/><path class="cls-1" d="M187.85,230.31l-10-14.35A17.71,17.71,0,0,1,176,216H164.89v14.28H155.8v-49H176a27.14,27.14,0,0,1,11.1,2.1,16.19,16.19,0,0,1,7.24,6,16.82,16.82,0,0,1,2.52,9.31,16.54,16.54,0,0,1-2.7,9.51,16,16,0,0,1-7.73,6l11.27,16.1Zm-3.29-38.77q-3.08-2.52-9-2.52H164.89v19.52h10.64q6,0,9-2.55a8.89,8.89,0,0,0,3.08-7.24A8.79,8.79,0,0,0,184.56,191.54Z"/><path class="cls-1" d="M245.45,189v14.91h23.66v7.69H245.45v18.76h-9.1v-49h35.77V189Z"/><path class="cls-1" d="M347.08,222.68v7.63H310.33v-49h35.76V189H319.43v12.74h23.66v7.48H319.43v13.51Z"/><path class="cls-1" d="M395.68,227.76a24,24,0,0,1-9.38-9,26.28,26.28,0,0,1,0-25.89,24.18,24.18,0,0,1,9.41-9,27.59,27.59,0,0,1,13.4-3.25,27.93,27.93,0,0,1,11,2.1,22.31,22.31,0,0,1,8.4,6.09l-5.88,5.53a17.14,17.14,0,0,0-13.09-5.74,18.31,18.31,0,0,0-9,2.2,15.83,15.83,0,0,0-6.23,6.13,18.74,18.74,0,0,0,0,17.77,15.83,15.83,0,0,0,6.23,6.13,18.31,18.31,0,0,0,9,2.2,17,17,0,0,0,13.09-5.81l5.88,5.6a22.34,22.34,0,0,1-8.43,6.09,28.22,28.22,0,0,1-11,2.1A27.6,27.6,0,0,1,395.68,227.76Z"/><path class="cls-1" d="M474.66,189H458.43v-7.7H500V189H483.77v41.29h-9.11Z"/><path class="cls-2" d="M473,78.55,496.87,0,421.68,31.71l40.9,6.45Z"/><path class="cls-3" d="M105.17,102.38a27,27,0,0,1,5.45,17q0,14.76-12.18,22.85t-35.27,8.09H0V38.09H60q22.44,0,33.91,8t11.46,21.32a26,26,0,0,1-3.93,14.11,28.24,28.24,0,0,1-11.62,10.1Q99.73,95.33,105.17,102.38Zm-68-37.84V81.22H54.83q12.35,0,12.34-8.34T54.83,64.54ZM72.47,115q0-8.81-12.51-8.81H37.19v17.63H60Q72.47,123.86,72.47,115Z"/><path class="cls-4" d="M226.87,128.24a63.31,63.31,0,0,1-9.11-33.69,63.31,63.31,0,0,1,9.11-33.69c.54-.88,1.11-1.72,1.69-2.56a57.25,57.25,0,0,0-18.62-15.24,69.29,69.29,0,0,0-32.54-7.54q-18.12,0-32.55,7.54A56.22,56.22,0,0,0,114.07,94.2a56.22,56.22,0,0,0,30.78,51.14q14.43,7.54,32.55,7.54t32.54-7.54a57.25,57.25,0,0,0,18.37-14.91C227.83,129.7,227.33,129,226.87,128.24ZM199.2,109a24.78,24.78,0,0,1-9.06,9.78,25.27,25.27,0,0,1-25.49,0,24.71,24.71,0,0,1-9.06-9.78,31.18,31.18,0,0,1-3.37-14.83,31.23,31.23,0,0,1,3.37-14.83,24.71,24.71,0,0,1,9.06-9.78,25.33,25.33,0,0,1,25.49,0,24.78,24.78,0,0,1,9.06,9.78,31.23,31.23,0,0,1,3.37,14.83A31.18,31.18,0,0,1,199.2,109Z"/><path class="cls-5" d="M256,145.69a56.22,56.22,0,0,1-30.78-51.14A56.22,56.22,0,0,1,256,43.41q14.43-7.53,32.55-7.54T321,43.41a56.2,56.2,0,0,1,30.79,51.14A56.2,56.2,0,0,1,321,145.69q-14.42,7.53-32.54,7.54T256,145.69Zm45.3-26.53a24.69,24.69,0,0,0,9.05-9.78,31.06,31.06,0,0,0,3.37-14.83,31.09,31.09,0,0,0-3.37-14.83,24.69,24.69,0,0,0-9.05-9.78,25.28,25.28,0,0,0-25.5,0,24.69,24.69,0,0,0-9.05,9.78,31.09,31.09,0,0,0-3.37,14.83,31.06,31.06,0,0,0,3.37,14.83,24.69,24.69,0,0,0,9.05,9.78,25.28,25.28,0,0,0,25.5,0Z"/><path class="cls-6" d="M453.53,98.69c-3.81-4.25-7.2-8.08-9.94-11.18a22,22,0,0,1-1.66-27.12,133.91,133.91,0,0,1,13.43-15.85L408.52,67.23c-4.27,2.58-7.93.73-7.93-3.39V38.19H358.94V150.31h41.65V132c0-14.12,13.26-18.17,21.09-9.68l24.27,28H500Z"/></svg>