<svg id="Layer_1" data-name="Layer 1" xmlns="http://www.w3.org/2000/svg" viewBox="0 0 500 294.07"><defs><style>.cls-1{fill:#b98c6d;}</style></defs><path class="cls-1" d="M26.74,176.21a18.45,18.45,0,0,1-7.18-6.89A19.06,19.06,0,0,1,17,159.4a18.85,18.85,0,0,1,2.63-9.91,18.52,18.52,0,0,1,7.21-6.89,21.11,21.11,0,0,1,10.26-2.49,21.49,21.49,0,0,1,8.42,1.6,17.27,17.27,0,0,1,6.43,4.67l-4.5,4.23a13.14,13.14,0,0,0-10-4.39,14,14,0,0,0-6.91,1.69,12,12,0,0,0-4.77,4.69,14.32,14.32,0,0,0,0,13.61,12.09,12.09,0,0,0,4.77,4.69,14,14,0,0,0,6.91,1.69,13.06,13.06,0,0,0,10-4.45l4.5,4.29a17.09,17.09,0,0,1-6.46,4.66A21.66,21.66,0,0,1,37,178.7,21.18,21.18,0,0,1,26.74,176.21Zm2.82,13,1.23-3.16a7.84,7.84,0,0,0,3.64.85c1.9,0,2.84-.64,2.84-1.93a1.49,1.49,0,0,0-.69-1.28,3.84,3.84,0,0,0-2.15-.48H32.77l1.45-5.47h3.64l-.75,3a5.66,5.66,0,0,1,3.49,1.47,4.2,4.2,0,0,1,1.18,3,4.3,4.3,0,0,1-2,3.7,9,9,0,0,1-5.3,1.39A10,10,0,0,1,29.56,189.26Z"/><path class="cls-1" d="M86,169.48H67.24l-3.7,8.68H56.36l16.88-37.52H80.1L97,178.16H89.75ZM83.69,164l-7.07-16.4-7,16.4Z"/><path class="cls-1" d="M111.4,146.54H99v-5.9h31.84v5.9H118.37v31.62h-7Z"/><path class="cls-1" d="M174.39,178.16l-.06-24.87L162,173.87h-3.11l-12.32-20.26v24.55h-6.65V140.64h5.74l14.9,24.87,14.63-24.87h5.74l0,37.52Z"/><path class="cls-1" d="M219.3,169.48H200.54l-3.7,8.68h-7.18l16.89-37.52h6.86l16.94,37.52h-7.29ZM217,164l-7.08-16.4-7,16.4Z"/><path class="cls-1" d="M292.09,178.16l0-24.87-12.33,20.58H276.6l-12.33-20.26v24.55h-6.64V140.64h5.73l14.9,24.87,14.64-24.87h5.73l.06,37.52Z"/><path class="cls-1" d="M340.82,172.32v5.84H312.68V140.64h27.39v5.85H319.64v9.75h18.12V162H319.64v10.34Z"/><path class="cls-1" d="M355.69,177.47a17.54,17.54,0,0,1-6.4-3.27l2.41-5.42a18.86,18.86,0,0,0,5.65,3,20.57,20.57,0,0,0,6.73,1.15q4.19,0,6.24-1.34a4.05,4.05,0,0,0,2.07-3.54,3.45,3.45,0,0,0-1.15-2.65,8.2,8.2,0,0,0-2.93-1.64c-1.17-.39-2.78-.83-4.82-1.34a54.63,54.63,0,0,1-6.94-2,11.42,11.42,0,0,1-4.56-3.19,8.58,8.58,0,0,1-1.9-5.87,10,10,0,0,1,1.69-5.66,11.42,11.42,0,0,1,5.09-4,20.66,20.66,0,0,1,8.34-1.5A27,27,0,0,1,372,141a19,19,0,0,1,5.74,2.47l-2.2,5.41a21.92,21.92,0,0,0-5.15-2.19,19.28,19.28,0,0,0-5.2-.75c-2.75,0-4.8.46-6.13,1.39a4.3,4.3,0,0,0-2,3.7,3.31,3.31,0,0,0,1.15,2.62,8.18,8.18,0,0,0,2.92,1.61c1.18.4,2.79.84,4.82,1.34a50.86,50.86,0,0,1,6.86,2,11.79,11.79,0,0,1,4.59,3.19,8.45,8.45,0,0,1,1.9,5.79,9.87,9.87,0,0,1-1.69,5.63,11.43,11.43,0,0,1-5.12,4,20.83,20.83,0,0,1-8.36,1.5A28.73,28.73,0,0,1,355.69,177.47Z"/><path class="cls-1" d="M397.12,176.21a18.45,18.45,0,0,1-7.18-6.89,19.15,19.15,0,0,1-2.6-9.92,19,19,0,0,1,2.63-9.91,18.52,18.52,0,0,1,7.21-6.89,21.14,21.14,0,0,1,10.26-2.49,21.45,21.45,0,0,1,8.42,1.6,17.2,17.2,0,0,1,6.43,4.67l-4.5,4.23a13.14,13.14,0,0,0-10-4.39,14,14,0,0,0-6.92,1.69,12,12,0,0,0-4.77,4.69,14.32,14.32,0,0,0,0,13.61,12.09,12.09,0,0,0,4.77,4.69,14,14,0,0,0,6.92,1.69,13.06,13.06,0,0,0,10-4.45l4.5,4.29a17,17,0,0,1-6.46,4.66,21.63,21.63,0,0,1-8.44,1.61A21.18,21.18,0,0,1,397.12,176.21Z"/><path class="cls-1" d="M433.6,135.87a3.66,3.66,0,0,1-1.07-2.73,3.66,3.66,0,0,1,3.8-3.81,3.66,3.66,0,0,1,3.81,3.81,3.87,3.87,0,0,1-6.54,2.73Zm-.75,4.77h7v37.52h-7Z"/><path class="cls-1" d="M461.42,146.54H449v-5.9h31.84v5.9H468.39v31.62h-7Z"/><path class="cls-1" d="M173.28,191.64v19.89h-3.69V203H159.3v8.52h-3.69V191.64h3.69v8.21h10.29v-8.21Z"/><path class="cls-1" d="M202.89,206.93h-9.95l-2,4.6h-3.8l8.95-19.89h3.63l9,19.89h-3.86Zm-1.22-2.9-3.75-8.7-3.73,8.7Z"/><path class="cls-1" d="M240.91,211.53l0-13.18-6.53,10.91H232.7l-6.54-10.74v13h-3.52V191.64h3l7.9,13.19,7.76-13.19h3l0,19.89Z"/><path class="cls-1" d="M274,206.93H264.1l-2,4.6h-3.81l8.95-19.89h3.64l9,19.89H276Zm-1.22-2.9-3.75-8.7-3.72,8.7Z"/><path class="cls-1" d="M312.06,211.53l0-13.18-6.53,10.91h-1.65l-6.54-10.74v13h-3.52V191.64h3l7.9,13.19,7.76-13.19h3l0,19.89Z"/><path class="cls-1" d="M332.29,191.64H336v19.89h-3.7Z"/><path class="cls-1" d="M493.78,122.09H6.22a2.67,2.67,0,0,1,0-5.33H493.78a2.67,2.67,0,0,1,0,5.33Z"/><path class="cls-1" d="M487.9,86.69c-2.55-3.19-6.45-5-10.53-6a26,26,0,0,1,3.38-3.06c-11.44-2.75-19.76,5-23.08,8.85,3.43-5.46,1.63-12,1.63-12s-.4,4.35-7.4,7.77-12.14,11-12.14,11a5.17,5.17,0,0,0-1.48-4.48c-4.57,12.19-13.78,16.95-13.78,16.95,10.64-15.3,7.05-32.17-1.38-39.38a21.4,21.4,0,0,0-9.47-4.66,14.35,14.35,0,0,0-11.38,2.1c-4.09,2.8-6.81,7.71-7.81,13.15a33.14,33.14,0,0,0-.53,6.89,21.46,21.46,0,0,0,.86,6.24,13.73,13.73,0,0,1,3.57-7.85,6,6,0,0,0,7.46-2.4c-3.85.59-10.43-6.64-4-12.8s13.76-.61,13.76-.61c-2.83.23-4.69,4.18-4.69,4.18,5.71-1.13,8.7,4.15,8.7,4.15-7.63-.52-8.3,6.2-8.3,6.2,11.47-5,12.69,6,12.69,6-8.2-4.7-10.6,3.35-10.6,3.35,4.46-1.08,9.14,4.88,4.78,13s-11.54,7.13-11.54,7.13c12-5.21,9.55-10.36,9.55-10.36s-1,2.38-4.78,1.63a10.39,10.39,0,0,0-6.2.43c-3.47-8-9-5.81-9-5.81,3.95,2.08,6.56,13.76-12.09,14S361.88,96.6,361.88,96.6A18.93,18.93,0,0,0,382.73,102a2.19,2.19,0,0,1,3.19.92s1.14-2.14.07-3.82a3,3,0,0,1-.22-3.07,18,18,0,0,0,3.1-20.84,12.12,12.12,0,0,0-12.52-7c.15,0,.47.16.62.21a15.35,15.35,0,0,1,8.09,6.94,5.17,5.17,0,0,1,.86,3c-.24,1.26-1.81.77-2.67.66a11.74,11.74,0,0,0-4.38.16c-.24.06-3.46,1.17-2.38,1.44,3.42.85,7.74,10,3.67,12-3.24,1.63-4.06-6.17-4.06-6.17.06.94-1.73,11-9.61,9.84-5.59-.78-7.9-6-8.75-11a136.45,136.45,0,0,1-1.81-19.46c-.16-5.83-4.08-10.4-6.57-11.71a8.87,8.87,0,0,0-3.71-4.44c-3.5-2-8.09-1.51-10.37,1.46-2.23,3.19-1.69,6.12,1.39,7.91,1.81,1,4.64,1,5.94-1.23s.15-4.76-2.23-6.15c4-1.36,7.86,3.47,6.53,7.79-.1.26-.2.52-.31.78a5.35,5.35,0,0,1-.43.77c-2.16,3.41-8.5,4-12.28,1.84-6-3.48-7.42-13.27-1.54-18.26A43.32,43.32,0,0,1,354.78,53a30.88,30.88,0,0,1,11.65,15.35c-5.82-1.48-7.61,4.74-6.82,3.7,5.49,1.08,9.18,6.86,10.35,12.48a4.32,4.32,0,0,0-4.4-.77c-3,1.07-5.64,5.56-3.56,8.57s6,3,8.54.58c4.89-4.66,5-13.87,4.78-20.21a38.23,38.23,0,0,0-6.62-21.15,5.07,5.07,0,0,0,1.86-1.91A4.65,4.65,0,0,0,369,43.31a4.59,4.59,0,0,0-6.35,1.92c-.75-.63-1.59-1.11-2.35-1.74C350.92,37.11,340,35.42,331,41.23c-8.91-1.06-18,1.35-26.67-3-3.1-1.43-5.07-3.5-4.74-5.36.81-3.65-.88-5.56-3.92-4.52a3.23,3.23,0,0,0-2,3.85c.49,3.66,6.59,5.7,11.72,8.12-8.9-2.36-21.46-5.17-29.55-10.24A33.27,33.27,0,0,1,265.89,21c-2.9-4.1-5.05-9.95-2.34-14.71a6.19,6.19,0,0,1,4.72-3.1,5.59,5.59,0,0,0-1.52,1.58c-2.13,3.37-1.54,7.73,2.08,9.81a6.72,6.72,0,0,0,9.5-3c1.62-3.76-.63-8.06-3.9-10.1a9.46,9.46,0,0,0-10.29.29,9.44,9.44,0,0,0-2.24,2.47c-6.74,10.6,3.18,23.63,12.25,28.78,6.63,3.76,14.86,6.57,23.54,8.46q-5.82-.29-11.62-.77c-6-.5-13.6-1.92-20.4-1.24l-.2,0-.06,0c-5.65.61-10.71,2.72-13.81,8.05-3.1-5.33-8.16-7.44-13.81-8.05l-.06,0-.2,0c-6.8-.68-14.4.74-20.4,1.24q-5.81.49-11.62.77c8.68-1.89,16.91-4.7,23.54-8.46,9.07-5.15,19-18.18,12.25-28.78a9.44,9.44,0,0,0-2.24-2.47,9.46,9.46,0,0,0-10.29-.29c-3.27,2-5.52,6.34-3.9,10.1a6.72,6.72,0,0,0,9.5,3c3.62-2.08,4.21-6.44,2.08-9.81a5.59,5.59,0,0,0-1.52-1.58,6.17,6.17,0,0,1,4.72,3.1c2.71,4.76.56,10.61-2.34,14.71a33.27,33.27,0,0,1-9.88,9.17c-8.09,5.07-20.65,7.88-29.55,10.24,5.13-2.42,11.23-4.46,11.72-8.12a3.23,3.23,0,0,0-2-3.85c-3-1-4.73.87-3.92,4.52.33,1.86-1.64,3.93-4.74,5.36-8.71,4.31-17.76,1.9-26.67,3-9-5.81-19.95-4.12-29.33,2.26-.76.63-1.6,1.11-2.35,1.74a4.59,4.59,0,0,0-6.35-1.92,4.65,4.65,0,0,0-1.56,6.32,5.07,5.07,0,0,0,1.86,1.91,38.23,38.23,0,0,0-6.62,21.15c-.18,6.34-.11,15.55,4.78,20.21,2.55,2.42,6.51,2.36,8.54-.58s-.53-7.5-3.56-8.57a4.32,4.32,0,0,0-4.4.77c1.17-5.62,4.86-11.4,10.35-12.48.79,1-1-5.18-6.82-3.7A30.88,30.88,0,0,1,148.42,53a43.32,43.32,0,0,1,22.43-8.34c5.88,5,4.46,14.78-1.54,18.26-3.78,2.19-10.11,1.57-12.28-1.84a5.35,5.35,0,0,1-.43-.77c-.11-.26-.21-.52-.31-.78-1.33-4.32,2.57-9.15,6.53-7.79-2.38,1.39-3.44,4.06-2.23,6.15s4.13,2.28,5.94,1.23c3.08-1.79,3.62-4.72,1.39-7.91-2.28-3-6.87-3.48-10.37-1.46a8.87,8.87,0,0,0-3.71,4.44c-2.49,1.31-6.41,5.88-6.57,11.71a136.45,136.45,0,0,1-1.81,19.46c-.85,5-3.16,10.19-8.75,11-7.88,1.12-9.67-8.9-9.61-9.84,0,0-.82,7.8-4.06,6.17-4.07-2,.25-11.17,3.67-12,1.09-.27-2.14-1.38-2.38-1.44A11.74,11.74,0,0,0,120,79c-.86.11-2.43.6-2.67-.66a5.17,5.17,0,0,1,.86-3,15.35,15.35,0,0,1,8.09-6.94c.15,0,.47-.24.62-.21a12.12,12.12,0,0,0-12.52,7A18,18,0,0,0,117.43,96a3,3,0,0,1-.22,3.07c-1.07,1.68.07,3.82.07,3.82a2.2,2.2,0,0,1,3.2-.92,18.91,18.91,0,0,0,20.84-5.37s-3.59,13.94-22.23,13.68-16-11.93-12.09-14c0,0-5.49-2.2-9,5.81a10.39,10.39,0,0,0-6.2-.43C88,102.4,87.06,100,87.06,100s-2.48,5.15,9.55,10.36c0,0-7.18,1-11.54-7.13s.32-14,4.78-13c0,0-2.4-8.05-10.6-3.35,0,0,1.22-11,12.69-6,0,0-.67-6.72-8.3-6.2,0,0,3-5.28,8.7-4.15,0,0-1.86-3.95-4.69-4.18,0,0,7.37-5.54,13.76.61s-.18,13.39-4,12.8a6,6,0,0,0,7.46,2.4,13.73,13.73,0,0,1,3.57,7.85,21.46,21.46,0,0,0,.86-6.24,33.14,33.14,0,0,0-.53-6.89c-1-5.44-3.72-10.35-7.81-13.15a14.35,14.35,0,0,0-11.38-2.1,21.4,21.4,0,0,0-9.47,4.66c-8.43,7.21-12,24.08-1.38,39.38,0,0-9.21-4.76-13.78-16.95a5.17,5.17,0,0,0-1.48,4.48s-5.14-7.57-12.14-11-7.4-7.77-7.4-7.77-1.8,6.51,1.63,12c-3.32-3.86-11.64-11.6-23.08-8.85a26,26,0,0,1,3.38,3.06c-4.08,1-8,2.81-10.53,6-5.15,6.44-2,18.23,7.64,17,6.79-.86,9.2-10,5.69-15.14a9.18,9.18,0,0,0-3.22-2.87,25.25,25.25,0,0,1,2.65-.6s0,0,0,0S36.5,82.8,55.87,100.6c0,0-8.43-4.69-15-2l1.75,2.52s-12,2.51-12.07,10.24,11,8.29,10.33.95c0,0-3.07,1.33-3.53-1.89s4-7.21,22.9-2.74c0,0-5,1.89-4.29,6.76S60.28,120,60.28,120s-1.66-4.58,3.48-6.43,15-.94,25.75,2.31,31.69,4.22,42.93-4a42.65,42.65,0,0,0,11.67-13c.35,2.65,2,5.18,4.77,5.75a5.06,5.06,0,0,0,6.11-4.15c.61-3-2.57-5-5.14-4.73a3.41,3.41,0,0,0-2.5,1.42,8,8,0,0,1,.43-1.85c1.16-3,3.64-5.67,6.07-8.12a29.92,29.92,0,0,1,9.25-5c6.62-2.2,15.3-2,19.77,4.13a8.33,8.33,0,0,1,.57,8.86,6,6,0,0,1-1.37,1.61c-.36-3.39-1.27-6.77-4.37-8.68A5.94,5.94,0,0,0,169,90.68c-1.71,3.48.58,7.63,3.59,9.5a10.37,10.37,0,0,0,9.68.48,10.15,10.15,0,0,0,5.54-8.14,11,11,0,0,0-.18-3.8,17.38,17.38,0,0,0,2.78,1.08A19.48,19.48,0,0,0,205.36,88a29.85,29.85,0,0,0,11-10.86,53.35,53.35,0,0,0,5-11.65v0c3.07,4,10,3,10,3a13.66,13.66,0,0,1-6-14.16,14.51,14.51,0,0,1,3.85-7.35,12.24,12.24,0,0,1,19.89,3.42,7.7,7.7,0,0,1-2.25,9.11A7.53,7.53,0,0,1,237.2,59a6.7,6.7,0,0,1-1.64-2.69,5.8,5.8,0,0,0,1.71,1.59,5.51,5.51,0,0,0,8.11-3.48c1-3.63-1.77-6.75-5.17-7.52s-7.07,2-8.06,5.25a9.53,9.53,0,0,0,2.34,9,10.81,10.81,0,0,0,9.87,3.09,10.29,10.29,0,0,0,7.24-5,10.29,10.29,0,0,0,7.24,5,10.81,10.81,0,0,0,9.87-3.09,9.53,9.53,0,0,0,2.34-9c-1-3.2-4.56-6-8.06-5.25s-6.14,3.89-5.17,7.52a5.51,5.51,0,0,0,8.11,3.48,5.8,5.8,0,0,0,1.71-1.59A6.7,6.7,0,0,1,266,59a7.53,7.53,0,0,1-9.74.38A7.7,7.7,0,0,1,254,50.3a12.24,12.24,0,0,1,19.89-3.42,14.51,14.51,0,0,1,3.85,7.35,13.66,13.66,0,0,1-6,14.16s7,1.09,10-3v0a53.35,53.35,0,0,0,5,11.65,29.85,29.85,0,0,0,11,10.86,19.48,19.48,0,0,0,14.93,1.8,17.38,17.38,0,0,0,2.78-1.08,11,11,0,0,0-.18,3.8,10.15,10.15,0,0,0,5.54,8.14,10.37,10.37,0,0,0,9.68-.48c3-1.87,5.3-6,3.59-9.5A5.94,5.94,0,0,0,325.5,88c-3.1,1.91-4,5.29-4.37,8.68a6,6,0,0,1-1.37-1.61,8.33,8.33,0,0,1,.57-8.86c4.47-6.11,13.15-6.33,19.77-4.13a29.92,29.92,0,0,1,9.25,5c2.43,2.45,4.91,5.09,6.07,8.12a8,8,0,0,1,.43,1.85,3.41,3.41,0,0,0-2.5-1.42c-2.57-.22-5.75,1.74-5.14,4.73a5.06,5.06,0,0,0,6.11,4.15c2.79-.57,4.42-3.1,4.77-5.75a42.65,42.65,0,0,0,11.67,13c11.24,8.24,32.19,7.26,42.93,4s20.61-4.17,25.75-2.31,3.48,6.43,3.48,6.43,3.68-.61,4.36-5.48-4.29-6.76-4.29-6.76c18.91-4.47,23.35-.49,22.9,2.74s-3.53,1.89-3.53,1.89c-.66,7.34,10.42,6.78,10.33-.95s-12.07-10.24-12.07-10.24l1.75-2.52c-6.61-2.73-15,2-15,2,19.37-17.8,27.79-15.47,27.79-15.47s0,0,0,0a25.25,25.25,0,0,1,2.65.6,9.18,9.18,0,0,0-3.22,2.87c-3.51,5.09-1.1,14.28,5.69,15.14C489.86,104.92,493.05,93.13,487.9,86.69ZM358.11,47.26c7.62,5.55,13.18,14,12.75,20.85a39.22,39.22,0,0,0-14.54-17.77,58.81,58.81,0,0,0-20-8.27C343.51,39.91,351.53,42.51,358.11,47.26ZM146.88,50.34a39.22,39.22,0,0,0-14.54,17.77c-.43-6.85,5.13-15.3,12.75-20.85,6.58-4.75,14.6-7.35,21.83-5.19A58.81,58.81,0,0,0,146.88,50.34Zm17.73,27.82c-.54.12-1.07.26-1.59.4a32.31,32.31,0,0,0-14.43,8.67c1.31-6.24,1.24-12.61,1.7-19.07,0-.62.09-1.24.15-1.85a12.74,12.74,0,0,1,1.26-4.91c4.15,7.61,12.6,6.59,15.72,5A85.06,85.06,0,0,1,164.61,78.16Zm15,1a21.73,21.73,0,0,0-10.86-1.68,20.06,20.06,0,0,1,14.16-10l-.29.27A12.2,12.2,0,0,0,179.61,79.2Zm35.44-29.93a23.08,23.08,0,0,0-.2,8.76c.09.71.18,1.43.28,2.14.06.42.12.84.17,1.26a37.8,37.8,0,0,1,.43,6c-.14,5.93-2.16,11.16-5.54,14.34-.48.46-1.16,1-1.63.8a.55.55,0,0,1-.36-.47,1.88,1.88,0,0,1,.18-.88,9.42,9.42,0,0,1,.86-1.41,20.51,20.51,0,0,0,2.08-3.67,17.36,17.36,0,0,0,1.29-6.61,8.19,8.19,0,0,0-.07-1,19.43,19.43,0,0,0-1.15-4,20.76,20.76,0,0,1-1.17-4.12,7.9,7.9,0,0,1,0-1.81,4.81,4.81,0,0,1,.17-.84,3.81,3.81,0,0,0,.19-1.29.66.66,0,0,0-.38-.54c-1.06-.54-2.09,1.15-3,2.79a8.54,8.54,0,0,1-.48.83l-.05.08-.12.06a.91.91,0,0,1-1.23-.14,8.17,8.17,0,0,1-.92-1.72,6.64,6.64,0,0,0-1.12-1.93,6.45,6.45,0,0,0-9.22.57,1.85,1.85,0,0,0-.25.41,4.58,4.58,0,0,0,.68,0h.19a12.54,12.54,0,0,1,3,.35A12,12,0,0,1,204.36,62a17.48,17.48,0,0,1,3.1,7.88,15.44,15.44,0,0,1-.14,5.14A14.19,14.19,0,0,1,194.52,86a11.89,11.89,0,0,1-9.59-3.36,9.81,9.81,0,0,1-2.64-5.5,8.69,8.69,0,0,1,.48-4.29,7.89,7.89,0,0,1,8.53-4.91A6,6,0,0,1,195.6,71a4.83,4.83,0,0,1,.47,1.54,4.58,4.58,0,0,1-1.08,3.7,2.31,2.31,0,0,1-2.59.79,1.32,1.32,0,0,1-.84-.89,1.52,1.52,0,0,1,.31-.94c.07-.12.14-.23.2-.35a2.63,2.63,0,0,0,.26-1.44,2,2,0,0,0-1.27-1.6,2.87,2.87,0,0,0-2.79.35,4.67,4.67,0,0,0-1.92,4.37,4.2,4.2,0,0,0,1.32,2.55,5.74,5.74,0,0,0,6.31,1,7.67,7.67,0,0,0,4.55-9.76c-1.46-3.85-6.11-6-10-6.37a22.83,22.83,0,0,0-8.43.66c-1.73.47-6.71,1.81-7.55,3.57,1.86-3.89,3.67-8.23,4.56-10.74,1.3-3.24.79-8.45-1.46-12.49a366,366,0,0,0,42.29-1A12.87,12.87,0,0,0,215.05,49.27Zm9.25-2.91a12.68,12.68,0,0,0-.31,1.31,9.76,9.76,0,0,1-.5,1.86,1.16,1.16,0,0,1-1.37.71,1.79,1.79,0,0,1-1.22-1.62A9.77,9.77,0,0,1,222,44.13c.08-.18.16-.37.23-.56l3.25-.29A30.63,30.63,0,0,0,224.3,46.36Zm58,2.26a1.79,1.79,0,0,1-1.22,1.62,1.16,1.16,0,0,1-1.37-.71,9.76,9.76,0,0,1-.5-1.86,10.53,10.53,0,0,0-.31-1.31,30.63,30.63,0,0,0-1.14-3.08l3.25.29c.07.19.15.38.23.56A9.77,9.77,0,0,1,282.3,48.62Zm38.61,28.49a9.81,9.81,0,0,1-2.64,5.5A11.89,11.89,0,0,1,308.68,86a14.19,14.19,0,0,1-12.8-10.92,15.44,15.44,0,0,1-.14-5.14,17.48,17.48,0,0,1,3.1-7.88,12,12,0,0,1,6.71-4.75,12.54,12.54,0,0,1,3-.35h.19a4.58,4.58,0,0,0,.68,0,1.85,1.85,0,0,0-.25-.41,6.45,6.45,0,0,0-9.22-.57,6.64,6.64,0,0,0-1.12,1.93,8.17,8.17,0,0,1-.92,1.72.91.91,0,0,1-1.23.14l-.12-.06-.05-.08c-.14-.2-.29-.49-.48-.83-.88-1.64-1.91-3.33-3-2.79a.66.66,0,0,0-.38.54,3.81,3.81,0,0,0,.19,1.29,4.81,4.81,0,0,1,.17.84,7.9,7.9,0,0,1,0,1.81,20.76,20.76,0,0,1-1.17,4.12,19.43,19.43,0,0,0-1.15,4,8.19,8.19,0,0,0-.07,1,17.56,17.56,0,0,0,1.29,6.61A20.51,20.51,0,0,0,294,79.8a9.42,9.42,0,0,1,.86,1.41,1.88,1.88,0,0,1,.18.88.55.55,0,0,1-.36.47c-.47.17-1.15-.34-1.63-.8-3.38-3.18-5.4-8.41-5.54-14.34a37.8,37.8,0,0,1,.43-6c.05-.42.11-.84.17-1.26.1-.71.19-1.43.28-2.14a23.08,23.08,0,0,0-.2-8.76,12.87,12.87,0,0,0-2.93-5.35,366,366,0,0,0,42.29,1c-2.25,4-2.76,9.25-1.46,12.49.89,2.51,2.7,6.85,4.56,10.74-.84-1.76-5.82-3.1-7.55-3.57a22.83,22.83,0,0,0-8.43-.66c-3.85.42-8.5,2.52-10,6.37a7.67,7.67,0,0,0,4.55,9.76,5.74,5.74,0,0,0,6.31-1,4.2,4.2,0,0,0,1.32-2.55,4.67,4.67,0,0,0-1.92-4.37,2.87,2.87,0,0,0-2.79-.35,2.07,2.07,0,0,0-1.27,1.6,2.63,2.63,0,0,0,.26,1.44c.06.12.13.23.2.35a1.52,1.52,0,0,1,.31.94c-.06.47-.51.73-.84.89a2.31,2.31,0,0,1-2.59-.79,4.61,4.61,0,0,1-1.08-3.7A4.83,4.83,0,0,1,307.6,71a6,6,0,0,1,4.3-3.11,7.89,7.89,0,0,1,8.53,4.91A8.69,8.69,0,0,1,320.91,77.11Zm2.68,2.09a12.2,12.2,0,0,0-3-11.36l-.29-.27a20.06,20.06,0,0,1,14.16,10A21.73,21.73,0,0,0,323.59,79.2Zm16.59-.64c-.52-.14-1.05-.28-1.59-.4a85.06,85.06,0,0,1-2.81-11.73c3.12,1.56,12.2,2.21,15.72-5a12.74,12.74,0,0,1,1.26,4.91c.06.61.11,1.23.15,1.85.46,6.46.39,12.83,1.7,19.07A32.31,32.31,0,0,0,340.18,78.56Z"/><path class="cls-1" d="M241.47,85.71c-3-4.17-7.62-7.58-11.32-10.74s-7.34-7.16-7.7-12.22c-.16-2.21-3.62-2.22-3.46,0,.48,6.72,4.92,11.37,9.75,15.48a23.83,23.83,0,0,0-18.86,4.34,21.86,21.86,0,0,0-6.51,4c-8.19,7.37-7.82,20.74-2,27.18s16.12,7.18,21.32,2.63c3.37-2.94,4.92-6.24,5.18-9.29a10.84,10.84,0,0,0,1.16.52c3.37,1.27,7.44.26,10.29-1.74a13.31,13.31,0,0,0,5.42-9.35A15.15,15.15,0,0,0,241.47,85.71Zm-2.36,15.63a8.89,8.89,0,0,1-1.65,1.59c.14-.25.29-.5.41-.76a8.14,8.14,0,0,0-2.05-9.2,8,8,0,0,0-9.37-.76,7.22,7.22,0,0,0-3.57,5.15,7.75,7.75,0,0,0-8.71.67c-1.69,1.52-2.87,4.42-1.32,6.41,1,1.25,3.26,2.94,4.58,1.16-.92.17-1.84-2.38,0-2.48a3.21,3.21,0,0,1,3.36,2.41c-1.44-1.53-3.41-.66-3.12,1.79.63-2,3.06-.4,3.65,1.06,1,2.41-1,4.82-2.77,6.26a8.87,8.87,0,0,1-7.77,1.93c2.82-.26,4.16-1.53,4.88-3.51s-1-3.49-2.5-4c-.73,3-5.47,1.5-8.15-2.37-3.84-5.55.19-13.62,3.39-13.5,2.22.07,2.63,1.81,1.63,3.09,2.38-1.27,2.34-2.68,2.6-5s1.76-2.76,2.61-4.49a5.37,5.37,0,0,1,.91-1.78c-.16,1.41.06,2.67,1,3.26s2.27.45,3.3-1c-1,.69-2.39-1-2.21-2.25.63-4.35,5.22-4.21,8.6-3.73C235.58,82.66,246.4,92.27,239.11,101.34Z"/><path class="cls-1" d="M258.27,96.53a13.28,13.28,0,0,0,5.42,9.35c2.85,2,6.92,3,10.28,1.74a9.31,9.31,0,0,0,1.16-.52,14.09,14.09,0,0,0,5.18,9.29c5.21,4.55,15.53,3.81,21.32-2.63s6.16-19.81-2-27.18a21.73,21.73,0,0,0-6.51-4,23.81,23.81,0,0,0-18.85-4.34c4.82-4.11,9.27-8.76,9.75-15.48.16-2.22-3.3-2.21-3.46,0-.36,5.06-4,9.08-7.7,12.22C266.36,80.48,257.22,86.86,258.27,96.53Zm4.34-5.83a13.28,13.28,0,0,1,1-2c2.57-4.2,7.74-6.65,12.49-7.34,3.37-.48,8-.62,8.6,3.73.18,1.27-1.2,2.94-2.21,2.25,1,1.44,2.35,1.58,3.3,1s1.17-1.85,1-3.26a5.56,5.56,0,0,1,.91,1.78c.85,1.73,2.35,2.35,2.61,4.49s.22,3.68,2.59,5c-1-1.28-.59-3,1.64-3.09,3.2-.12,7.23,8,3.39,13.5-2.69,3.87-7.43,5.33-8.16,2.37-1.53.46-3.22,2-2.5,4s2.07,3.25,4.89,3.51a8.87,8.87,0,0,1-7.77-1.93c-1.76-1.44-3.75-3.85-2.77-6.26.59-1.46,3-3.09,3.65-1.06.29-2.45-1.68-3.32-3.13-1.79a3.22,3.22,0,0,1,3.36-2.41c1.89.1,1,2.65.05,2.48,1.31,1.78,3.59.09,4.58-1.16,1.55-2,.37-4.89-1.32-6.41a7.77,7.77,0,0,0-8.72-.67,7.18,7.18,0,0,0-3.56-5.15,8,8,0,0,0-9.37.76,8.13,8.13,0,0,0-2,9.2,8,8,0,0,0,.41.76,8.89,8.89,0,0,1-1.65-1.59A10.53,10.53,0,0,1,262.61,90.7Z"/><path class="cls-1" d="M210,62.08c-3.56-6.7-7.64-13.87-15-17-6.11-2.56-14.86-1.16-17.47,5.72-.17.13-.34.28-.5.43a1.57,1.57,0,0,0,0,2.32,6.37,6.37,0,0,0,2.65,5.56c2.42,1.69,6.08,1.73,7.88-.9a6,6,0,0,0-1.41-8,6.11,6.11,0,0,0-3-1.17,10.6,10.6,0,0,1,1.29-.81c4.35-2.28,9.64-.46,13.21,2.4,4.26,3.41,6.86,8.4,9.38,13.13C208.1,65.79,211.08,64,210,62.08Z"/><path class="cls-1" d="M296.15,63.82c2.52-4.73,5.12-9.72,9.38-13.13,3.57-2.86,8.86-4.68,13.21-2.4a11.53,11.53,0,0,1,1.3.81,6.1,6.1,0,0,0-3,1.17,6,6,0,0,0-1.41,8c1.8,2.63,5.46,2.59,7.88.9a6.37,6.37,0,0,0,2.65-5.56,1.57,1.57,0,0,0,0-2.32c-.16-.15-.33-.3-.5-.43-2.6-6.88-11.36-8.28-17.46-5.72-7.35,3.09-11.43,10.26-15,17C292.12,64,295.1,65.79,296.15,63.82Z"/><path class="cls-1" d="M497.3,234.6H2.7a3,3,0,0,1,0-6H497.3a3,3,0,0,1,0,6Z"/><path class="cls-1" d="M385.55,236.2c-9.19-7.54-20.85-8-31.69-5.8a115.44,115.44,0,0,0-31.92,12.14,91.48,91.48,0,0,0-10.85,6.32c.51-.34-.42-4.3-.57-4.88a19.8,19.8,0,0,0-1.78-4.57,18.54,18.54,0,0,0-6.26-6.76c-5.32-3.37-12.48-3.17-17,1.84-.2.22-.39.45-.58.69a12.07,12.07,0,0,0-1.78,12.29c2,4.7,7,7.95,11.63,6.08,4.32-1.74,8.42-7.5,4.73-12.23-2.59-3.32-9-2.48-9,2.72a5.06,5.06,0,0,0,5.28,5c-3.24,4.19-10.56.38-10.22-6.09.22-6.07,6.48-9.38,11.29-9,6,.47,10.83,7.26,10.64,13.84,0,.6-.09,3.42-.63,3.71A41.48,41.48,0,0,1,282,256.22a30.87,30.87,0,0,1-18.75-8.75c3.46,1.53,7,2.57,11.79,1.14-1.13-7.16-9.53-.87-16.71-7.09-1-4.89-6.57-12.59-6.64-12.44-1.16,2.76-5,7.55-6,12.44-7.18,6.22-15.58-.07-16.71,7.09,4.8,1.43,8.32.39,11.78-1.14A30.85,30.85,0,0,1,222,256.22a41.48,41.48,0,0,1-24.88-4.76c-.54-.29-.61-3.11-.63-3.71-.19-6.58,4.61-13.37,10.64-13.84,4.81-.39,11.07,2.92,11.29,9,.34,6.47-7,10.28-10.23,6.09a5.07,5.07,0,0,0,5.29-5c0-5.2-6.46-6-9-2.72-3.68,4.73.42,10.49,4.74,12.23,4.67,1.87,9.59-1.38,11.63-6.08A12.1,12.1,0,0,0,219,235.18q-.27-.36-.57-.69c-4.49-5-11.66-5.21-17-1.84a18.46,18.46,0,0,0-6.26,6.76,19.39,19.39,0,0,0-1.79,4.57c-.14.58-1.07,4.54-.56,4.88A91.48,91.48,0,0,0,182,242.54a115.5,115.5,0,0,0-31.93-12.14c-10.83-2.21-22.49-1.74-31.69,5.8-4.7,3.86-8.52,10-6.73,16.76,1.12,4.26,4.44,7.69,8.42,8.09a8.74,8.74,0,0,0,9.16-6.12c1.14-3.78-.44-8.73-4.07-10a6.17,6.17,0,0,0-7.9,5.2,2.25,2.25,0,0,0,1.35,2.64,1.9,1.9,0,0,0,2.36-1.5c.33-2.73,3.75-3.25,4.55-.47,1.49,5.14-4.88,7.51-8,4.68a7.15,7.15,0,0,1-2.11-5.22c0-4.4,3.15-7.68,6.23-9.88a32.1,32.1,0,0,1,12.44-5.2,38.21,38.21,0,0,1,11.68-.44c-.24.08-.47.16-.71.26-7.22,2.8-13,10.44-12.21,19.29.85,9.29,8.14,16.05,16.44,15.35,10-.85,18.3-14.89,9.76-23.91a8.53,8.53,0,0,0-9.19-2.39c-8.44,3.39-5.57,20.11,3.9,17.07a8.53,8.53,0,0,0,5-5.26,11.77,11.77,0,0,1-3.79,7.7c-3.08,2.89-7.68,3.12-11.32,1.67s-6.11-5.61-6.89-9.77c-1.65-8.87,6.28-15.82,13.4-16.67,7.93-.95,15.24,3.49,21.37,8.81,0,0,6.8,7.15,2.31,13.59,0,0,4.47-2.2,5-6.39,1.8,5.48,3.59,15.35-4,21.38,0,0,12.68-1.73,12.68-13,1.08,1,2.17,1.92,3.3,2.82h0c-3.84,5.25-1.29,11.22-1.29,11.22,5.77-11,12.82-1.67,14.31,1.19s4.61,8.35,4.61,8.35c6.62,10.4,18.08,1.59,18.08,1.59-10,1.22-14.45-8.93-16.08-14.17a42.25,42.25,0,0,0,15.23-1.88,4.57,4.57,0,0,0,4.2,2.92c2.55,0,4.6-2.28,4.77-5.52,0-.27,0-.56-.05-.86a88.66,88.66,0,0,0,10.54-6,65.77,65.77,0,0,0,6.89,6.57,66.77,66.77,0,0,0,6.89-6.57,88.66,88.66,0,0,0,10.54,6c0,.3-.05.59-.05.86.17,3.24,2.21,5.52,4.77,5.52a4.55,4.55,0,0,0,4.19-2.92,42.25,42.25,0,0,0,15.23,1.88c-1.62,5.24-6.09,15.39-16.08,14.17,0,0,11.47,8.81,18.09-1.59,0,0,3.11-5.48,4.6-8.35s8.55-12.17,14.32-1.19c0,0,2.54-6-1.29-11.22h0q1.69-1.35,3.31-2.82c0,11.3,12.67,13,12.67,13-7.63-6-5.85-15.9-4-21.38.49,4.19,5,6.39,5,6.39-4.49-6.44,2.31-13.59,2.31-13.59,6.12-5.32,13.44-9.76,21.37-8.81,7.12.85,15,7.8,13.39,16.67-.77,4.16-3.15,8.28-6.88,9.77s-8.24,1.22-11.33-1.67a11.82,11.82,0,0,1-3.79-7.7,8.54,8.54,0,0,0,5,5.26c9.47,3,12.33-13.68,3.89-17.07a8.54,8.54,0,0,0-9.19,2.39c-8.53,9-.27,23.06,9.77,23.91,8.29.7,15.59-6.06,16.43-15.35.81-8.85-5-16.49-12.21-19.29-.23-.1-.47-.18-.71-.26a38.27,38.27,0,0,1,11.69.44,32.06,32.06,0,0,1,12.43,5.2c3.08,2.2,6.21,5.48,6.24,9.88a7.12,7.12,0,0,1-2.12,5.22c-3.08,2.83-9.44.46-8-4.68.8-2.78,4.22-2.26,4.55.47a1.91,1.91,0,0,0,2.37,1.5,2.24,2.24,0,0,0,1.34-2.64,6.16,6.16,0,0,0-7.9-5.2c-3.62,1.25-5.2,6.2-4.07,10a8.74,8.74,0,0,0,9.17,6.12c4-.4,7.29-3.83,8.42-8.09C394.07,246.2,390.26,240.06,385.55,236.2ZM204.32,268A35.58,35.58,0,0,1,192,261c-6.55-5.33-12-12.11-18.36-17.7a94.62,94.62,0,0,1,20.92,11.92c4.43,8.69,12.51,13.19,21.75,13.92A33.6,33.6,0,0,1,204.32,268Zm39.57-16.26C240.11,258.25,231.19,263,222,264c-8.52,1-17.21-1.14-22.67-7.61A56.29,56.29,0,0,0,222,259.84a38.69,38.69,0,0,0,22.05-9C244,251.13,243.93,251.44,243.89,251.75ZM282,264c-9.22-1.07-18.15-5.78-21.93-12.28l-.12-.93a38.67,38.67,0,0,0,22.05,9,56.25,56.25,0,0,0,22.66-3.42C299.16,262.89,290.47,265,282,264Zm29.95-3a35.54,35.54,0,0,1-12.3,7,33.6,33.6,0,0,1-12,1.17c9.24-.73,17.32-5.23,21.75-13.92a94.4,94.4,0,0,1,20.92-11.92C323.91,248.93,318.45,255.71,311.9,261Z"/></svg>