<svg id="Layer_1" data-name="Layer 1" xmlns="http://www.w3.org/2000/svg" viewBox="0 0 500 141.46"><defs><style>.cls-1{fill:#4c7eac;}.cls-2{fill:#21234a;}</style></defs><path class="cls-1" d="M71.6,0C77.82,0,81.47,1.92,84,5.42c2.53,3.65,2.69,6.67,2.69,13.05,0,0-.16,61.08-.32,64.29-.48,8.11-2.85,18-4.46,21.16-2.21,4.94-6.06,10.8-12.09,14.65-8.91,5.58-19.71,7-25.93,7a51.53,51.53,0,0,1-21.17-4.78,32.37,32.37,0,0,1-11.28-8.11,38.67,38.67,0,0,1-8.28-14A60.72,60.72,0,0,1,0,78.27,59.83,59.83,0,0,1,3.17,57.91a40,40,0,0,1,8.28-14.18,32.12,32.12,0,0,1,11.28-8.11,33.89,33.89,0,0,1,12.89-2.69A39.31,39.31,0,0,1,50.88,36.1C55,37.71,60,40.72,62.65,43.73V0ZM23.86,78.43a35.61,35.61,0,0,0,1,8.75,25.8,25.8,0,0,0,3.65,8.75A17.6,17.6,0,0,0,34.69,102a16.62,16.62,0,0,0,9.08,2.38A16.36,16.36,0,0,0,52.68,102,16.44,16.44,0,0,0,59,95.93a25.22,25.22,0,0,0,3.65-8.75,35.82,35.82,0,0,0,1-8.75v-.8a29.89,29.89,0,0,0-1-6.54A27.66,27.66,0,0,0,59,62.33a17,17,0,0,0-6.35-6.06A16.06,16.06,0,0,0,43.77,54a16.72,16.72,0,0,0-9.08,2.24,17.67,17.67,0,0,0-6.22,6.06,26.63,26.63,0,0,0-3.65,8.76,27.77,27.77,0,0,0-1,6.22Z"/><path class="cls-1" d="M162.24,120.3a41.2,41.2,0,0,1-11.44,4.78A67.11,67.11,0,0,1,135.69,127h-2.05c-16.22,0-28.63-6.83-32.77-12.56-2.85-4.14-3.49-7.16-3.49-12.25,0,0-.48-8.92-.48-18.76,0-7.63.32-15.74,1.28-20.52,1.76-7.95,6.06-15.9,12.41-20.2a47.83,47.83,0,0,1,27.83-8.27,53.42,53.42,0,0,1,20,3.33,29.26,29.26,0,0,1,9.23,5.74,26.86,26.86,0,0,1,5.58,8,26.55,26.55,0,0,1,2.21,11.13A31.09,31.09,0,0,1,173,74.36c-3.81,9.55-12.09,12.89-15.1,14-.16,0-.32.16-.48.16a53.84,53.84,0,0,1-10.33,2c-3.49.64-6.83,1.12-10.19,1.44s-5.58.32-8.11,1.12A14.88,14.88,0,0,0,122.68,96a5.33,5.33,0,0,0-2.38,4.13,10.82,10.82,0,0,0,1.12,5.1c2.22,3.5,9.08,4.46,15.91,4.46,4.62,0,8.11-1,10.64-2.85a10.45,10.45,0,0,0,4.62-8h23c-.48,3.66-1.6,8.92-4,12.57A30,30,0,0,1,162.24,120.3ZM129,75.45a46,46,0,0,1,5.26-.81c1.77-.16,3.66-.48,5.42-.8s3.5-.8,5.26-1.28a12.77,12.77,0,0,0,4.3-2.21c2.05-2,4.13-4.14,4.13-8.11v-.81A9.63,9.63,0,0,0,152.27,57a8.4,8.4,0,0,0-3-3.18A13.32,13.32,0,0,0,144.64,52a29.7,29.7,0,0,0-5.42-.48c-4.46,0-7.95.8-10.48,2.37a15.31,15.31,0,0,0-5.58,5.42,19.15,19.15,0,0,0-2.22,6.35c-.16,2.21-.32,4-.32,5.26v7.63a11.63,11.63,0,0,1,3.66-1.93A43.94,43.94,0,0,1,129,75.45Z"/><path class="cls-1" d="M314.58,35.53v5.25a13.1,13.1,0,0,1-2.86,8.28c-1.44,1.6-5.1,3.33-9.55,3.49h-6.35V95.68c0,4.13.8,7,2.05,8.43,1.44,1.44,4.3,1.6,8.43,1.6h8.28v19.88H299.47a58.1,58.1,0,0,1-10.8-.8,24.91,24.91,0,0,1-9.24-3,17.61,17.61,0,0,1-6.18-6.51c-1.45-2.69-2.22-6.35-2.22-11V1.31h9.24c5.58,0,10.32,2.38,12.41,5.26,2.53,3.5,3.17,6.19,3.17,8.92v20Z"/><path class="cls-1" d="M347.51,31.39v4.3h18.75V41a12.42,12.42,0,0,1-2.85,8.27c-1.44,1.76-5.1,3.49-9.72,3.49h-6.34v72.85H322.53V22.8a23.73,23.73,0,0,1,2.21-11,15.76,15.76,0,0,1,6.35-6.51,25.34,25.34,0,0,1,9.07-3.17,80.4,80.4,0,0,1,11-.8h15.1v20H358c-4.3,0-7,.16-8.43,1.6S347.51,27.25,347.51,31.39Z"/><path class="cls-1" d="M374.21,6.57V1.47h24.66V21.68H389.8c-4,0-9.56-1.29-12.09-4.14S374.21,10.55,374.21,6.57Zm24.66,48v71H374.21V35.85h8.28c5.74,0,9.07,1.44,12.57,5.74C398.71,46.17,398.87,49.67,398.87,54.6Z"/><path class="cls-1" d="M418.43,35.85c7.47,0,15.42,2.21,19.24,4.29,3.65,2.06,7,6.06,9.39,9.72l6.35,9.39L469,35.88h27.35l-29.59,42L500,125.59h-9.72c-3.81.16-13.37-1.6-18.14-4.29-3-1.77-7.79-7-8.44-7.79L453.06,97.28,434.3,125.59H406.79l32.29-47.23-29.6-42.48h8.95Z"/><path class="cls-2" d="M253.55,98.63c.36-1.09.71-2.18,1-3.27-2.76.48-6.7.93-11.09,1.22a96.77,96.77,0,0,1-11.93.16c.29,1.09.54,2.21.77,3.3-.67.19-1,.38-1,.58,0,.67,5.36.89,11.87.48s11.73-1.29,11.7-2C254.84,98.92,254.36,98.76,253.55,98.63Z"/><path class="cls-2" d="M251.28,104.94c.29-.77.61-1.5.9-2.27a50.64,50.64,0,0,1-9.3,1.22c-4.68.28-8.63.22-9.88-.16.13.83.19,1.63.29,2.43-.45.16-.7.29-.7.42,0,.58,4.48.74,10,.38s9.87-1.09,9.81-1.63C252.3,105.17,252,105,251.28,104.94Z"/><path class="cls-2" d="M249.71,108.57a33.32,33.32,0,0,1-8,1.15c-4,.26-7.31.16-8.17-.16,0,.77.06,1.51.09,2.25-.48.12-.74.28-.7.41,0,.48,3.75.61,8.33.32s8.27-.89,8.24-1.38c0-.12-.32-.22-.83-.32.35-.73.74-1.5,1.06-2.27Z"/><path class="cls-2" d="M240.73,115a48,48,0,0,1-7.12,0c0,.77,0,1.48-.06,2.09-.45.13-.71.25-.71.35,0,.39,3.08.51,6.86.29s6.8-.74,6.77-1.12c0-.13-.32-.23-.9-.29.42-.64.83-1.32,1.22-2A56.65,56.65,0,0,1,240.73,115Z"/><path class="cls-2" d="M233.45,120.17c1.41,9.5,8.43,1.06,8.43,1.06.48-.54.93-1.09,1.38-1.66-1.22.19-2.92.38-4.84.51A43.52,43.52,0,0,1,233.45,120.17Z"/><path class="cls-2" d="M255.9,90.71a159.6,159.6,0,0,0,3.75-19.43c3-27.13-10.2-33.54-10.2-33.54-6.8-4.39-20,3.4-20,3.4-13.5,7.69-25,6.7-25,6.7,14-3.4,16.61-6.09,16.61-6.09-4.23-.1-14-4.81-14-4.81-18.25-6.38-20.81,17.12-20.81,17.12-2.95,27.13,8.62,46.56,8.62,46.56,8.53,17.82,12.38,15.23,12.38,15.23,2.31-1.41,2.37-7.41,2.37-7.41,1.19-12.83,4.23-17.22,4.23-17.22,5.71-10,12-5.48,13.66-3.94a8,8,0,0,1,.68.86,33.66,33.66,0,0,1,2.14,4.59c-.76.22-1.18.45-1.18.67.06.8,6.31,1.06,14,.55s13.88-1.54,13.82-2.31c0-.19-.42-.35-1.12-.48a1.57,1.57,0,0,1,.13-.45Z"/></svg>