<svg id="Layer_1" data-name="Layer 1" xmlns="http://www.w3.org/2000/svg" viewBox="0 0 500 264.66"><defs><style>.cls-1{fill:maroon;}</style></defs><polygon class="cls-1" points="255.26 88.11 269.27 105.2 250.59 89.88 248.44 88.83 250.44 91.78 250.4 92.32 248.06 124.03 245.52 89.88 245.52 87.74 243.86 91.24 243.86 91.24 226.84 105.2 242.05 86.65 243.75 84.75 239.69 86.53 239.69 86.53 188.06 83.98 238.82 81.47 238.82 81.47 243.75 82.65 241.66 81.33 205.63 41.56 243.42 75.78 245.32 80.05 245.32 77.51 248.06 0 250.79 77.51 250.79 80.67 252.68 75.8 290.48 41.56 254.45 81.33 253.02 83.14 257.5 81.48 257.5 81.48 308.05 83.98 254.06 86.65 250.79 86.65 255.26 88.11"/><path class="cls-1" d="M102.91,246.84l0,.16c-.6-.05-2-.08-2.74-.08s-2,0-2.76.08l0-.16a1.1,1.1,0,0,0,.85-1.15c0-.85,0-3.32,0-7.32H88.83c0,4,0,6.47,0,7.32a1.11,1.11,0,0,0,.85,1.15l0,.16c-.76-.05-2-.08-2.71-.08s-2,0-2.79.11l0-.19a1.1,1.1,0,0,0,.85-1.15c0-.88,0-3.51,0-7.76s0-6.87,0-7.75a1.1,1.1,0,0,0-.85-1.15l0-.17c.79.06,2,.09,2.79.09s2,0,2.71-.09l0,.17a1.11,1.11,0,0,0-.85,1.15c0,.79,0,3,0,6.71h9.42c0-3.67,0-5.92,0-6.71a1.1,1.1,0,0,0-.85-1.15l0-.17c.79.06,2,.09,2.76.09s2,0,2.74-.09l0,.17a1.11,1.11,0,0,0-.85,1.15c0,.88,0,3.48,0,7.75s0,6.88,0,7.76A1.11,1.11,0,0,0,102.91,246.84Z"/><path class="cls-1" d="M120.94,247.39c-5.64,0-10.16-3.73-10.16-9.46s4.52-9.45,10.16-9.45,10.2,3.73,10.2,9.45S126.61,247.39,120.94,247.39Zm0-17.48c-3.75,0-5.92,3-5.92,8s2.17,8,5.92,8,6-3,6-8S124.72,229.91,120.94,229.91Z"/><path class="cls-1" d="M153,232.4a9.8,9.8,0,0,0-5.89-2.28h-.25v7.81c0,4.25,0,6.88.06,7.76a1.12,1.12,0,0,0,.87,1.15l0,.16c-.77-.05-2-.08-2.74-.08s-1.95,0-2.74.08l-.06-.16c.6-.25.85-.49.88-1.15,0-.88,0-3.51,0-7.76v-7.81h-.22a10,10,0,0,0-5.92,2.31l-.19-.17a20.83,20.83,0,0,0,1-3.31h14.41a27.07,27.07,0,0,0,1,3.31Z"/><path class="cls-1" d="M163.33,246.92c-1.56,0-2.76,0-3.56.08l0-.16a1.08,1.08,0,0,0,.85-1.15c0-.88.06-3.51.06-7.76s0-6.87-.06-7.75a1.08,1.08,0,0,0-.85-1.15l0-.17c.8.06,2,.09,3,.09h8.85a18.44,18.44,0,0,0,1.15,3.26l-.19.13a9.19,9.19,0,0,0-6.66-2.19c-.57,0-1,0-1.5,0,0,1.1-.06,3.86-.06,6.88,4.61-.09,5.65-.41,5.95-1.81l.19,0a22.63,22.63,0,0,0-.11,2.38,20.91,20.91,0,0,0,.11,2.36l-.19,0c-.28-1.45-1.34-1.7-5.95-1.75,0,3.75,0,6.58.06,7.43h.85c3.12,0,6.44-.66,8.46-2.2l.2.17a33,33,0,0,0-1.38,3.23Z"/><path class="cls-1" d="M193.72,243.69c-.41.85-1,2.25-1.37,3.23h-7.56c-2.2,0-3.4,0-4.2.08l0-.16a1.1,1.1,0,0,0,.85-1.15c0-.88.05-3.51.05-7.76s0-6.87-.05-7.75a1.1,1.1,0,0,0-.85-1.15l0-.17c.8.06,2,.09,2.8.09s1.94,0,2.71-.09l0,.17a1.11,1.11,0,0,0-.85,1.15c0,.88-.05,3.89-.05,7.75,0,4.25,0,6.42.05,7.79h.9a11.51,11.51,0,0,0,7.38-2.2Z"/><path class="cls-1" d="M206.52,247.39a10.51,10.51,0,0,1-5.73-1.56l-.52-4.14.24-.08c1.65,3.12,4.14,4.35,6.2,4.35,1.86,0,3.4-1,3.4-2.9,0-1.7-1.29-2.66-4.14-3.95-3.26-1.48-5.21-2.82-5.21-5.56,0-3.26,2.66-5.07,6.08-5.07a8.28,8.28,0,0,1,5,1.32l.31,3.69-.25.09c-1.29-2.69-3.24-3.65-5.15-3.65s-2.91,1-2.91,2.39,1.1,2.3,3.95,3.53c3.2,1.43,5.51,2.8,5.51,6.11C213.26,245.44,210.27,247.39,206.52,247.39Z"/><path class="cls-1" d="M249.13,237.39a3.36,3.36,0,0,1-3.38,2.57c-.19,0-.38,0-.6-.05a3.48,3.48,0,0,1,1.13,2.55c0,2.32-2.17,4.93-6.69,4.93-4,0-7.78-2-7.78-5.7,0-2.55,2-4.69,5.34-5.37-1.84-.52-3.56-1.62-3.56-3.78,0-2.69,2.85-4.06,5.34-4.06a6.6,6.6,0,0,1,4.61,1.37l.41,2.82-.2.06c-.95-1.78-2-2.8-3.81-2.8a2.62,2.62,0,0,0-2.71,2.85,3,3,0,0,0,2.83,3.18v1.1c-3.1.08-4.55,1.86-4.55,4.44,0,3,2.27,4.41,4.68,4.41,3.7,0,4.85-2.08,4.85-3.67a2,2,0,0,0-2-2.28,2.39,2.39,0,0,0-1.81.85l-.3-.19a4.17,4.17,0,0,1,4.14-3.32c1,0,1.73.22,2.52.22a1.55,1.55,0,0,0,1.21-.38Z"/><path class="cls-1" d="M280.94,246.46a4.18,4.18,0,0,1-2.55.79c-3.18,0-4.47-2.41-5.43-5.42-.49-1.57-1.12-2.8-2-3.1a6.27,6.27,0,0,1-.74,0c0,3.48,0,6.11.05,7a1.11,1.11,0,0,0,.85,1.15l0,.16c-.76-.05-2-.08-2.79-.08s-1.92,0-2.71.08l0-.16a1.1,1.1,0,0,0,.85-1.15c0-.88.05-3.51.05-7.76s0-6.87-.05-7.75c0-.71-.36-1-.85-1.07V229c1.56-.09,3.4-.11,4.85-.11,5,0,8.08,1.75,8.08,4.65S276,238,273.1,238.56c1.48.53,2.88,2,4.17,4.09,1.8,2.9,2.57,3.86,3.61,3.61Zm-10.77-9.1h.46c2.69,0,3.81-1.54,3.81-3.87,0-2.13-1-3.42-4.22-3.42C270.2,231.19,270.17,234,270.17,237.36Z"/><path class="cls-1" d="M290.44,246.92c-1.56,0-2.76,0-3.56.08l0-.16a1.09,1.09,0,0,0,.84-1.15c0-.88.06-3.51.06-7.76s0-6.87-.06-7.75a1.08,1.08,0,0,0-.84-1.15l0-.17c.8.06,2,.09,3,.09h8.85a18.44,18.44,0,0,0,1.15,3.26l-.19.13a9.18,9.18,0,0,0-6.65-2.19c-.58,0-1.05,0-1.51,0,0,1.1-.06,3.86-.06,6.88,4.61-.09,5.65-.41,5.95-1.81l.19,0a22.63,22.63,0,0,0-.11,2.38,20.91,20.91,0,0,0,.11,2.36l-.19,0c-.28-1.45-1.34-1.7-5.95-1.75,0,3.75,0,6.58.06,7.43h.85c3.12,0,6.44-.66,8.47-2.2l.19.17a30.72,30.72,0,0,0-1.37,3.23Z"/><path class="cls-1" d="M313.85,247.39a10.51,10.51,0,0,1-5.73-1.56l-.52-4.14.25-.08C309.49,244.73,312,246,314,246c1.86,0,3.4-1,3.4-2.9,0-1.7-1.29-2.66-4.14-3.95-3.26-1.48-5.21-2.82-5.21-5.56,0-3.26,2.66-5.07,6.09-5.07a8.33,8.33,0,0,1,5,1.32l.3,3.69-.25.09c-1.29-2.69-3.23-3.65-5.15-3.65s-2.91,1-2.91,2.39,1.1,2.3,3.95,3.53c3.21,1.43,5.51,2.8,5.51,6.11C320.59,245.44,317.6,247.39,313.85,247.39Z"/><path class="cls-1" d="M338.62,247.39c-5.65,0-10.17-3.73-10.17-9.46s4.52-9.45,10.17-9.45,10.19,3.73,10.19,9.45S344.29,247.39,338.62,247.39Zm0-17.48c-3.76,0-5.92,3-5.92,8s2.16,8,5.92,8,5.94-3,5.94-8S342.4,229.91,338.62,229.91Z"/><path class="cls-1" d="M372.1,246.46a4.14,4.14,0,0,1-2.55.79c-3.18,0-4.46-2.41-5.42-5.42-.5-1.57-1.13-2.8-2.06-3.1a6.36,6.36,0,0,1-.74,0c0,3.48,0,6.11.06,7a1.09,1.09,0,0,0,.84,1.15l0,.16c-.77-.05-2-.08-2.8-.08s-1.92,0-2.71.08l0-.16a1.09,1.09,0,0,0,.85-1.15c0-.88.06-3.51.06-7.76s0-6.87-.06-7.75c0-.71-.35-1-.85-1.07V229c1.56-.09,3.4-.11,4.85-.11,5,0,8.09,1.75,8.09,4.65s-2.47,4.55-5.35,5.07c1.48.53,2.88,2,4.17,4.09,1.81,2.9,2.57,3.86,3.62,3.61Zm-10.77-9.1h.47c2.68,0,3.81-1.54,3.81-3.87,0-2.13-1-3.42-4.22-3.42C361.36,231.19,361.33,234,361.33,237.36Z"/><path class="cls-1" d="M392.32,232.4a9.77,9.77,0,0,0-5.89-2.28h-.25v7.81c0,4.25,0,6.88.06,7.76a1.13,1.13,0,0,0,.87,1.15l-.05.16c-.77-.05-2-.08-2.74-.08s-1.95,0-2.74.08l-.05-.16a1.12,1.12,0,0,0,.87-1.15c0-.88.06-3.51.06-7.76v-7.81h-.22a9.9,9.9,0,0,0-5.92,2.31l-.19-.17a20.73,20.73,0,0,0,1-3.31h14.42a23.92,23.92,0,0,0,1,3.31Z"/><path class="cls-1" d="M405.2,247.39a10.45,10.45,0,0,1-5.72-1.56l-.52-4.14.24-.08c1.64,3.12,4.14,4.35,6.19,4.35,1.87,0,3.4-1,3.4-2.9,0-1.7-1.29-2.66-4.14-3.95-3.26-1.48-5.2-2.82-5.2-5.56,0-3.26,2.66-5.07,6.08-5.07a8.28,8.28,0,0,1,5,1.32l.3,3.69-.24.09c-1.29-2.69-3.24-3.65-5.16-3.65s-2.9,1-2.9,2.39,1.1,2.3,3.95,3.53c3.2,1.43,5.5,2.8,5.5,6.11C411.94,245.44,409,247.39,405.2,247.39Z"/><path class="cls-1" d="M46.3,155.46c-1.38.59-2,1.12-2.1,3-.26,3.68-.4,8.15-.4,18.35s.07,17.89.14,22.16H40.65c-12.83-13.94-23.88-25.71-33.94-36.11.13,3.69.2,8.09.26,14,.07,8.88.46,14.73.72,18.35a3.15,3.15,0,0,0,2.11,3l-.07.4c-1.38-.13-3.22-.2-4.27-.2s-2.63.07-4.21.2l-.07-.4c1.38-.65,2-1.11,2-2.63.33-4.07.4-8.61.4-18.74,0-7.89-.07-13-.13-15.13C3.42,158.29,2,156.58,0,155.46l.13-.39c2.24.13,4.41.19,6.05.19s3.49,0,5.13-.06c11.45,12.56,20.92,22.49,29.34,31-.07-3-.13-6.44-.13-9.4-.07-8.88-.4-14.47-.66-18.29a3.2,3.2,0,0,0-2.24-3.09l.13-.39c1.32.13,3,.19,4.15.19s2.76-.06,4.27-.19Z"/><path class="cls-1" d="M89.31,199.53c-13.55,0-24.4-8.95-24.4-22.69s10.85-22.69,24.4-22.69,24.47,8.94,24.47,22.69S102.92,199.53,89.31,199.53Zm0-42c-9,0-14.21,7.1-14.21,19.27s5.2,19.27,14.21,19.27,14.27-7.17,14.27-19.27S98.39,157.57,89.31,157.57Z"/><path class="cls-1" d="M172,155.46a6.45,6.45,0,0,0-3.82,3.55c-5.59,10.86-14.14,29.21-18.74,40.13H148.3c-4.28-9.61-14.14-30.79-18.81-40a7.43,7.43,0,0,0-3.88-3.69l.06-.39c2,.13,5.33.19,7.24.19s6.18-.06,8-.19l.06.39c-1.84.73-2.23,1.51-1.58,3.09,1.58,3.82,8.75,19.67,12.57,28,3.48-8.09,9.4-22.37,11.24-27.36.79-2.31.2-3-1.77-3.69l.13-.39c2,.13,3.88.19,5.66.19s2.89-.06,4.67-.19Z"/><path class="cls-1" d="M266.34,180.39c-.66,0-1.31,0-2-.07,0,7.17.07,13.16.13,15.13a2.65,2.65,0,0,0,2,2.76l-.06.4c-1.85-.13-4.81-.2-6.65-.2s-4.67.07-6.57.2l-.07-.4a2.63,2.63,0,0,0,2-2.76c.07-2.1.13-8.42.13-18.61s-.06-16.51-.13-18.62c-.07-1.71-.86-2.43-2-2.56v-.4c3.75-.19,8.16-.26,11.64-.26,11,0,20.39,3.75,20.39,12.1C285.15,176.18,277.72,180.39,266.34,180.39ZM264.43,158c-.06,2.83-.13,10-.13,19.08h1.51c6.91,0,9.74-3.89,9.74-9.94S272.46,158,264.43,158Z"/><path class="cls-1" d="M333.68,190.65c-1,2-2.43,5.39-3.28,7.76H312.24c-5.26,0-8.15.07-10.06.2l-.07-.4c1.45-.59,2-1.18,2-2.76.07-2.1.13-8.42.13-18.61s-.06-16.51-.13-18.62a2.63,2.63,0,0,0-2-2.76l.07-.39c1.91.13,4.8.19,6.71.19,1.71,0,4.67-.06,6.51-.19l.06.39a2.64,2.64,0,0,0-2,2.76c-.07,2.11-.13,9.34-.13,18.62,0,10.19.06,15.39.13,18.68h2.17c7.17,0,12.95-1.58,17.69-5.26Z"/><path class="cls-1" d="M441.6,190.19a53.66,53.66,0,0,0-3.16,8.22H403.58l-.19-.46c4-6.64,20.45-33.08,24.2-39.79h-2.7c-7.16,0-15.06.85-20.32,5.79l-.39-.33a57.7,57.7,0,0,0,3.29-8.36h32.16l.2.6c-3.95,6.24-21.05,33.67-24.21,39.66h3c7.56,0,17.36-1.52,22.56-5.72Z"/><path class="cls-1" d="M219.46,194.53c-4.67-9.21-14.54-30.39-18.81-40h-1.12c-4.61,10.92-13.16,29.27-18.75,40.12a6.38,6.38,0,0,1-3.81,3.55l.13.4c1.38-.13,3.29-.2,4.8-.2s4.08.07,5.59.2l.07-.4c-1.91-.65-2.57-1.38-1.78-3.68.59-1.64,1.65-4.21,2.9-7.3h0l1.38-3.42h0c.16-.4.33-.81.49-1.22l.09-.21,0-.07h0c2.15-5.27,4.56-11,6.36-15.14,1.86,4,4.49,9.81,6.89,15.14h0l0,.09c.21.47.42.95.63,1.41h0l2.22,5c1.26,2.82,2.28,5.09,2.78,6.31.66,1.58.26,2.37-1.58,3.09l.07.4c1.58-.13,6.38-.2,8.09-.2s5.39.07,7.1.2l.07-.4A7.3,7.3,0,0,1,219.46,194.53Z"/><path class="cls-1" d="M387,194.53c-4.67-9.21-14.54-30.39-18.81-40h-1.12c-4.61,10.92-13.16,29.27-18.75,40.12a6.38,6.38,0,0,1-3.81,3.55l.13.4c1.38-.13,3.29-.2,4.8-.2s4.08.07,5.59.2l.07-.4c-1.91-.65-2.57-1.38-1.78-3.68.59-1.64,1.65-4.21,2.9-7.3h0l1.38-3.42h0l1-2.41,0-.06h0c2.05-5,4.27-10.28,6-14.17,1.86,4,4.5,9.82,6.9,15.16h0l0,.09c.21.46.42.93.62,1.39h0l1.82,4.11c1.44,3.23,2.63,5.85,3.18,7.2.66,1.58.27,2.37-1.58,3.09l.07.4c1.58-.13,6.38-.2,8.09-.2s5.39.07,7.1.2l.07-.4A7.3,7.3,0,0,1,387,194.53Z"/><path class="cls-1" d="M496.12,194.53c-4.67-9.21-14.54-30.39-18.81-40h-1.12c-4.6,10.92-13.15,29.27-18.75,40.12-1.18,2.24-2.49,3.16-3.81,3.55l.13.4c1.38-.13,3.29-.2,4.8-.2s4.08.07,5.59.2l.07-.4c-1.91-.65-2.57-1.38-1.78-3.68.6-1.64,1.65-4.21,2.9-7.3h0l1.39-3.42h0c.41-1,.85-2.08,1.28-3.14l.06-.14h0c2-4.75,4-9.68,5.63-13.36,1.77,3.82,4.23,9.22,6.52,14.31h0v0c.35.77.7,1.54,1,2.3h0l2.11,4.74h0c1.32,2.94,2.39,5.31,2.9,6.57.66,1.58.27,2.37-1.58,3.09l.07.4c1.58-.13,6.38-.2,8.09-.2s5.39.07,7.1.2l.07-.4A7.3,7.3,0,0,1,496.12,194.53Z"/></svg>