<svg id="Layer_1" data-name="Layer 1" xmlns="http://www.w3.org/2000/svg" xmlns:xlink="http://www.w3.org/1999/xlink" viewBox="0 0 500 310.42"><defs><style>.cls-1{fill:#222;}.cls-2{fill:#b98c6d;}.cls-3{fill:url(#linear-gradient);}</style><linearGradient id="linear-gradient" x1="172.91" y1="66.88" x2="260.7" y2="66.88" gradientUnits="userSpaceOnUse"><stop offset="0" stop-color="#b98c6d"/><stop offset="1" stop-color="#d7b697"/></linearGradient></defs><path class="cls-1" d="M74.89,281.75l3.16,9.55h.12l3.16-9.55h2.42l-4.28,12.13H76.75l-4.27-12.13Z"/><path class="cls-1" d="M94.22,281.75v12.13H92V281.75Z"/><path class="cls-1" d="M103.28,293.88V281.75h4.55a4.78,4.78,0,0,1,2.35.52,3.37,3.37,0,0,1,1.44,1.43,4.21,4.21,0,0,1,.49,2.06,4.29,4.29,0,0,1-.49,2.08,3.48,3.48,0,0,1-1.45,1.42,4.89,4.89,0,0,1-2.37.52h-3V288h2.72a2.8,2.8,0,0,0,1.34-.28,1.87,1.87,0,0,0,.77-.78,2.52,2.52,0,0,0,.25-1.15,2.38,2.38,0,0,0-.25-1.13,1.76,1.76,0,0,0-.78-.77,2.78,2.78,0,0,0-1.34-.28h-2v10.3Z"/><path class="cls-1" d="M141.9,285.84h-2.21a2.94,2.94,0,0,0-.35-1,2.76,2.76,0,0,0-.64-.72,2.62,2.62,0,0,0-.86-.45,3.49,3.49,0,0,0-1-.15,3.2,3.2,0,0,0-1.76.5,3.36,3.36,0,0,0-1.19,1.44,5.58,5.58,0,0,0-.44,2.32,5.66,5.66,0,0,0,.44,2.35,3.09,3.09,0,0,0,2.94,1.91,3.42,3.42,0,0,0,1-.14,3,3,0,0,0,.86-.43,2.53,2.53,0,0,0,.64-.7,2.66,2.66,0,0,0,.37-.95h2.21a4.8,4.8,0,0,1-3.16,3.86,5.63,5.63,0,0,1-2,.33,5.55,5.55,0,0,1-2.85-.74,5.2,5.2,0,0,1-2-2.14,8.07,8.07,0,0,1,0-6.71,5.22,5.22,0,0,1,2-2.14,5.54,5.54,0,0,1,2.84-.74,6,6,0,0,1,1.89.28,4.75,4.75,0,0,1,1.55.84,4.43,4.43,0,0,1,1.12,1.34A4.83,4.83,0,0,1,141.9,285.84Z"/><path class="cls-1" d="M161.44,287.81a7.13,7.13,0,0,1-.73,3.36,5.28,5.28,0,0,1-2,2.14,5.55,5.55,0,0,1-2.85.74,5.48,5.48,0,0,1-2.86-.75,5.22,5.22,0,0,1-2-2.14,8.05,8.05,0,0,1,0-6.7,5.22,5.22,0,0,1,2-2.14,5.88,5.88,0,0,1,5.71,0,5.22,5.22,0,0,1,2,2.14A7.11,7.11,0,0,1,161.44,287.81Zm-2.21,0a5.61,5.61,0,0,0-.43-2.33,3.22,3.22,0,0,0-1.19-1.44,3.08,3.08,0,0,0-1.74-.49,3.12,3.12,0,0,0-1.75.49,3.29,3.29,0,0,0-1.19,1.44,6.55,6.55,0,0,0,0,4.67,3.29,3.29,0,0,0,1.19,1.44,3.19,3.19,0,0,0,1.75.48,3.16,3.16,0,0,0,1.74-.48,3.22,3.22,0,0,0,1.19-1.44A5.65,5.65,0,0,0,159.23,287.81Z"/><path class="cls-1" d="M180.18,281.75v12.13h-2l-5.72-8.27h-.1v8.27h-2.19V281.75h2l5.72,8.27h.1v-8.27Z"/><path class="cls-1" d="M199.63,285.84h-2.22a2.68,2.68,0,0,0-1-1.69,2.62,2.62,0,0,0-.86-.45,3.49,3.49,0,0,0-1-.15,3.18,3.18,0,0,0-1.76.5,3.22,3.22,0,0,0-1.19,1.44,5.58,5.58,0,0,0-.44,2.32,5.66,5.66,0,0,0,.44,2.35,3.22,3.22,0,0,0,1.2,1.43,3.18,3.18,0,0,0,1.74.48,3.31,3.31,0,0,0,1-.14,2.78,2.78,0,0,0,.86-.43,2.56,2.56,0,0,0,.65-.7,2.47,2.47,0,0,0,.36-.95h2.22a4.8,4.8,0,0,1-3.16,3.86,5.67,5.67,0,0,1-2,.33,5.53,5.53,0,0,1-2.85-.74,5.2,5.2,0,0,1-2-2.14,8.07,8.07,0,0,1,0-6.71,5.22,5.22,0,0,1,2-2.14,5.49,5.49,0,0,1,2.84-.74,6,6,0,0,1,1.89.28,4.75,4.75,0,0,1,1.55.84,4.43,4.43,0,0,1,1.12,1.34A4.83,4.83,0,0,1,199.63,285.84Z"/><path class="cls-1" d="M210.53,281.75v12.13h-2.2V281.75Z"/><path class="cls-1" d="M219.59,293.88V281.75h7.89v1.84h-5.69v3.29h5.28v1.85h-5.28V292h5.74v1.84Z"/><path class="cls-1" d="M236.4,293.88V281.75H241a5.15,5.15,0,0,1,2.35.48,3.27,3.27,0,0,1,1.44,1.36,4.05,4.05,0,0,1,.49,2,4,4,0,0,1-.49,2,3.3,3.3,0,0,1-1.46,1.32,5.36,5.36,0,0,1-2.36.47h-3.24v-1.83h2.95a3.26,3.26,0,0,0,1.34-.23,1.54,1.54,0,0,0,.77-.67,2.11,2.11,0,0,0,.25-1.08,2.28,2.28,0,0,0-.25-1.11,1.67,1.67,0,0,0-.78-.7,3.21,3.21,0,0,0-1.34-.24h-2v10.3Zm6.27-5.5,3,5.5h-2.46l-2.95-5.5Z"/><path class="cls-1" d="M262.07,285.62a3.26,3.26,0,0,0-.41-.86,2.78,2.78,0,0,0-.62-.66,2.43,2.43,0,0,0-.82-.41,3.5,3.5,0,0,0-1-.14,3.22,3.22,0,0,0-1.75.49,3.28,3.28,0,0,0-1.2,1.45,5.51,5.51,0,0,0-.43,2.31,5.61,5.61,0,0,0,.43,2.33,3.1,3.1,0,0,0,3,1.94,3.41,3.41,0,0,0,1.61-.35,2.47,2.47,0,0,0,1-1,3.05,3.05,0,0,0,.37-1.54l.5.08h-3.3v-1.72h4.93V289a5.14,5.14,0,0,1-.67,2.69,4.44,4.44,0,0,1-1.82,1.75,5.63,5.63,0,0,1-2.67.62,5.55,5.55,0,0,1-2.94-.76,5.14,5.14,0,0,1-2-2.15,7.14,7.14,0,0,1-.71-3.32,7.62,7.62,0,0,1,.42-2.62,5.34,5.34,0,0,1,1.17-2A5,5,0,0,1,257,282a5.72,5.72,0,0,1,2.21-.42,6,6,0,0,1,1.87.29,5,5,0,0,1,1.55.84,4.38,4.38,0,0,1,1.12,1.27,4.59,4.59,0,0,1,.58,1.64Z"/><path class="cls-1" d="M273.21,293.88V281.75h7.89v1.84h-5.69v3.29h5.28v1.85h-5.28V292h5.74v1.84Z"/><path class="cls-1" d="M307.44,285.08a1.64,1.64,0,0,0-.7-1.21,2.69,2.69,0,0,0-1.59-.43,3,3,0,0,0-1.18.21,1.69,1.69,0,0,0-.75.56,1.38,1.38,0,0,0-.27.81,1.19,1.19,0,0,0,.18.66,1.41,1.41,0,0,0,.47.47,3,3,0,0,0,.67.32,6.91,6.91,0,0,0,.74.22l1.14.29a7.65,7.65,0,0,1,1.33.43,4.68,4.68,0,0,1,1.14.69,2.88,2.88,0,0,1,.8,1,3,3,0,0,1,.3,1.37,3.23,3.23,0,0,1-.55,1.88,3.5,3.5,0,0,1-1.57,1.26,6.13,6.13,0,0,1-2.48.46,6.32,6.32,0,0,1-2.46-.44,3.66,3.66,0,0,1-1.62-1.28,3.77,3.77,0,0,1-.64-2.05h2.17a1.81,1.81,0,0,0,.39,1.05,2.1,2.1,0,0,0,.9.63,3.74,3.74,0,0,0,2.5,0,2.08,2.08,0,0,0,.85-.6,1.47,1.47,0,0,0,.31-.91,1.17,1.17,0,0,0-.28-.79,2,2,0,0,0-.76-.52,8,8,0,0,0-1.14-.38l-1.38-.35a5.61,5.61,0,0,1-2.37-1.17,2.69,2.69,0,0,1-.87-2.09,3.12,3.12,0,0,1,.59-1.88A3.83,3.83,0,0,1,302.9,282a5.52,5.52,0,0,1,2.28-.45,5.38,5.38,0,0,1,2.27.45,3.71,3.71,0,0,1,1.53,1.24,3.14,3.14,0,0,1,.57,1.81Z"/><path class="cls-1" d="M318.35,293.88V281.75h7.89v1.84h-5.69v3.29h5.28v1.85h-5.28V292h5.74v1.84Z"/><path class="cls-1" d="M335.17,293.88V281.75h4.55a5.21,5.21,0,0,1,2.35.48,3.38,3.38,0,0,1,1.44,1.36,4.16,4.16,0,0,1,.49,2,4,4,0,0,1-.5,2,3.27,3.27,0,0,1-1.45,1.32,5.39,5.39,0,0,1-2.36.47h-3.24v-1.83h2.94a3.23,3.23,0,0,0,1.34-.23,1.5,1.5,0,0,0,.77-.67,2.11,2.11,0,0,0,.26-1.08,2.28,2.28,0,0,0-.26-1.11,1.67,1.67,0,0,0-.78-.7,3.18,3.18,0,0,0-1.34-.24h-2v10.3Zm6.26-5.5,3,5.5H342l-2.95-5.5Z"/><path class="cls-1" d="M354,281.75l3.16,9.55h.13l3.15-9.55h2.42l-4.28,12.13h-2.72l-4.27-12.13Z"/><path class="cls-1" d="M373.33,281.75v12.13h-2.2V281.75Z"/><path class="cls-1" d="M392.78,285.84h-2.22a2.93,2.93,0,0,0-.34-1,2.76,2.76,0,0,0-.64-.72,2.62,2.62,0,0,0-.86-.45,3.49,3.49,0,0,0-1-.15,3.18,3.18,0,0,0-1.76.5,3.36,3.36,0,0,0-1.19,1.44,5.58,5.58,0,0,0-.44,2.32,5.66,5.66,0,0,0,.44,2.35,3.22,3.22,0,0,0,1.2,1.43,3.18,3.18,0,0,0,1.74.48,3.42,3.42,0,0,0,1-.14,3,3,0,0,0,.86-.43,2.53,2.53,0,0,0,.64-.7,2.47,2.47,0,0,0,.36-.95h2.22a4.8,4.8,0,0,1-3.16,3.86,5.67,5.67,0,0,1-2,.33,5.55,5.55,0,0,1-2.85-.74,5.2,5.2,0,0,1-2-2.14,8.07,8.07,0,0,1,0-6.71,5.22,5.22,0,0,1,2-2.14,5.54,5.54,0,0,1,2.84-.74,6,6,0,0,1,1.89.28,4.75,4.75,0,0,1,1.55.84A4.43,4.43,0,0,1,392.2,284,4.83,4.83,0,0,1,392.78,285.84Z"/><path class="cls-1" d="M401.48,293.88V281.75h7.89v1.84h-5.7v3.29H409v1.85h-5.29V292h5.75v1.84Z"/><path class="cls-1" d="M424.89,285.08a1.64,1.64,0,0,0-.7-1.21,2.69,2.69,0,0,0-1.59-.43,3,3,0,0,0-1.18.21,1.69,1.69,0,0,0-.75.56,1.38,1.38,0,0,0-.27.81,1.19,1.19,0,0,0,.18.66,1.41,1.41,0,0,0,.47.47,3,3,0,0,0,.67.32,6.91,6.91,0,0,0,.74.22l1.14.29a7.65,7.65,0,0,1,1.33.43,4.68,4.68,0,0,1,1.14.69,2.95,2.95,0,0,1,1.1,2.37,3.23,3.23,0,0,1-.55,1.88,3.5,3.5,0,0,1-1.57,1.26,6.15,6.15,0,0,1-2.49.46,6.31,6.31,0,0,1-2.45-.44,3.69,3.69,0,0,1-1.63-1.28,3.85,3.85,0,0,1-.63-2.05H420a1.81,1.81,0,0,0,.39,1.05,2.1,2.1,0,0,0,.9.63,3.43,3.43,0,0,0,1.24.21,3.5,3.5,0,0,0,1.26-.22,2.08,2.08,0,0,0,.85-.6,1.47,1.47,0,0,0,.31-.91,1.17,1.17,0,0,0-.28-.79,2,2,0,0,0-.76-.52,8,8,0,0,0-1.14-.38l-1.38-.35a5.61,5.61,0,0,1-2.37-1.17,2.69,2.69,0,0,1-.87-2.09,3.12,3.12,0,0,1,.59-1.88,3.83,3.83,0,0,1,1.59-1.25,5.52,5.52,0,0,1,2.28-.45,5.38,5.38,0,0,1,2.27.45,3.71,3.71,0,0,1,1.53,1.24,3.14,3.14,0,0,1,.57,1.81Z"/><polygon class="cls-1" points="405.15 258.18 329.17 258.18 329.17 198.77 405.15 198.77 405.15 211.96 344.69 211.96 344.69 221.88 405.15 221.88 405.15 235.07 344.69 235.07 344.69 244.99 405.15 244.99 405.15 258.18"/><polygon class="cls-2" points="105 258.22 105 238.37 105 218.59 105 198.73 120.52 198.73 120.52 218.59 120.52 238.37 120.52 258.22 105 258.22"/><path class="cls-1" d="M236.66,245.29H291.3c2.82,0,5.1-1.94,5.1-4.34v-1.42c0-2.39-2.28-4.34-5.1-4.34H253c-11.39,0-20.62-7.84-20.62-17.53v-1.41c0-9.69,9.23-17.53,20.62-17.53h54.64v13.19H253c-2.82,0-5.1,1.94-5.1,4.34v1.41c0,2.4,2.28,4.34,5.1,4.34H291.3c11.39,0,20.62,7.85,20.62,17.53V241c0,8.68-7.41,15.88-17.15,17.28H236.66Z"/><polygon class="cls-2" points="91.07 198.76 55.56 258.18 35.52 258.18 0 198.76 17.41 198.76 45.04 244.99 46.03 244.99 73.66 198.76 91.07 198.76"/><path class="cls-2" d="M143.48,258.53V228h56.83c2.9,0,5.25-2,5.25-4.46v-7.44c0-2.46-2.35-4.45-5.25-4.45H143.56V198.42h56.75c11.47,0,20.77,7.9,20.77,17.64v7.44c0,9.75-9.3,17.65-20.77,17.65H159v17.38Z"/><path class="cls-1" d="M476.35,258.53l-10.68-17.38H437.92v17.38H422.4V228h56.84c2.89,0,5.24-2,5.24-4.46v-7.44c0-2.46-2.35-4.45-5.24-4.45H422.48V198.42h56.76c11.46,0,20.76,7.9,20.76,17.64v7.44c0,8.66-7.33,15.85-17,17.36l10.86,17.67Z"/><path class="cls-1" d="M209.93,22.79a65.22,65.22,0,0,1,80.14,0h13.46a74.26,74.26,0,0,0-107.06,0Z"/><path class="cls-1" d="M229,136.36a65.41,65.41,0,0,1-43.14-74.72l-6.36-11a74.39,74.39,0,0,0,55.89,96.81Z"/><path class="cls-1" d="M314.14,61.64A65.4,65.4,0,0,1,271,136.35l-6.39,11.06A74.37,74.37,0,0,0,320.5,50.62Z"/><path class="cls-1" d="M273.58,27.92q-9.1,15.78-18.24,31.57L266.05,78l18.07-31.27h10.71L250,124.38,235.72,99.65h-21.4q17.84,30.91,35.68,61.8,38.55-66.78,77.09-133.53Z"/><path class="cls-3" d="M250,105.84,260.7,87.3l-8.52-14.77H220.07l-14.9-25.77h10.71l9.9,17.12h21.41l-20.77-36H172.91q18.22,31.57,36.46,63.15h32.1Z"/></svg>